<svg width="32" height="32" viewBox="0 0 32 32" fill="none" xmlns="http://www.w3.org/2000/svg">
<path d="M27.353 8.96027C26.518 9.33027 25.621 9.58027 24.678 9.69327C25.651 9.11106 26.3789 8.19474 26.726 7.11527C25.8118 7.65826 24.8113 8.04047 23.768 8.24527C23.0664 7.49614 22.137 6.9996 21.1243 6.83274C20.1116 6.66589 19.0721 6.83806 18.1672 7.32252C17.2624 7.80698 16.5427 8.57663 16.1201 9.51197C15.6975 10.4473 15.5955 11.496 15.83 12.4953C13.9777 12.4023 12.1656 11.9208 10.5114 11.0822C8.85719 10.2435 7.39781 9.06643 6.22797 7.62727C5.82797 8.31727 5.59797 9.11727 5.59797 9.96927C5.59753 10.7363 5.78641 11.4915 6.14785 12.168C6.5093 12.8445 7.03213 13.4213 7.66997 13.8473C6.93025 13.8237 6.20685 13.6239 5.55997 13.2643V13.3243C5.5599 14.4 5.93201 15.4426 6.61316 16.2753C7.29431 17.1079 8.24254 17.6792 9.29697 17.8923C8.61076 18.078 7.89131 18.1053 7.19297 17.9723C7.49047 18.8979 8.06997 19.7073 8.85034 20.2872C9.63071 20.8671 10.5729 21.1884 11.545 21.2063C9.89481 22.5017 7.85686 23.2044 5.75897 23.2013C5.38735 23.2014 5.01605 23.1797 4.64697 23.1363C6.77645 24.5054 9.25531 25.2321 11.787 25.2293C20.357 25.2293 25.042 18.1313 25.042 11.9753C25.042 11.7753 25.037 11.5733 25.028 11.3733C25.9393 10.7142 26.7259 9.89817 27.351 8.96327L27.353 8.96027Z" fill="black"/>
</svg>
