<svg width="1440" height="812" viewBox="0 0 1440 812" fill="none" xmlns="http://www.w3.org/2000/svg">
<rect width="1440" height="812" fill="#F24D1D"/>
<g opacity="0.1">
<path d="M719.702 7.02559L0.00341797 0V28.8503L719.702 21.8247L1440 14.7991V14.0512L719.702 7.02559Z" fill="white"/>
<path d="M719.699 37.1447L0 30.6404V58.4481L719.699 51.9438L1440 45.4848V43.6264L719.699 37.1447Z" fill="white"/>
<path d="M719.699 67.2644L0 61.304V88.0465L719.699 82.0634L1440 76.171V73.1795L719.699 67.2644Z" fill="white"/>
<path d="M719.699 97.3837L0 91.9446V117.645L719.699 112.183L1440 106.834V102.732L719.699 97.3837Z" fill="white"/>
<path d="M719.699 127.503L0 122.585V147.243L719.699 142.302L1440 137.52V132.308L719.699 127.503Z" fill="white"/>
<path d="M719.699 157.622L0 153.226V176.841L719.699 172.422L1440 168.184V161.883L719.699 157.622Z" fill="white"/>
<path d="M719.699 187.742L0 183.889V206.416L719.699 202.541L1440 198.869V191.436L719.699 187.742Z" fill="white"/>
<path d="M719.699 217.861L0 214.53V236.014L719.699 232.683L1440 229.533V221.011L719.699 217.861Z" fill="white"/>
<path d="M719.699 248.003L0 245.193V265.613L719.699 262.802L1440 260.196V250.587L719.699 248.003Z" fill="white"/>
<path d="M719.699 278.1L0 275.834V295.188L719.699 292.922L1440 290.859V280.162L719.699 278.1Z" fill="white"/>
<path d="M719.699 308.242L0 306.497V324.764L719.699 323.041L1440 321.523V309.738L719.699 308.242Z" fill="white"/>
<path d="M719.699 338.361L0 337.16V354.362L719.699 353.16L1440 352.186V339.313L719.699 338.361Z" fill="white"/>
<path d="M719.699 368.481L0 367.801V383.937L719.699 383.28L1440 382.85V368.889L719.699 368.481Z" fill="white"/>
<path d="M719.699 398.6L0 398.464V413.513L719.699 413.399L1440 413.513V398.464L719.699 398.6Z" fill="white"/>
<path d="M719.699 428.72L0 429.128V443.111L719.699 443.519L1440 444.176V428.04L719.699 428.72Z" fill="white"/>
<path d="M719.699 458.839L0 459.791V472.687L719.699 473.638L1440 474.84V457.638L719.699 458.839Z" fill="white"/>
<path d="M719.699 488.958L0 490.454V502.262L719.699 503.757L1440 505.502V487.213L719.699 488.958Z" fill="white"/>
<path d="M719.699 519.078L0 521.118V531.838L719.699 533.877L1440 536.144V516.789L719.699 519.078Z" fill="white"/>
<path d="M719.699 549.197L0 551.781V561.413L719.699 563.997L1440 566.807V546.387L719.699 549.197Z" fill="white"/>
<path d="M719.699 579.317L0 582.444V590.966L719.699 594.116L1440 597.47V575.985L719.699 579.317Z" fill="white"/>
<path d="M719.699 609.436L0 613.13V620.541L719.699 624.235L1440 628.111V605.561L719.699 609.436Z" fill="white"/>
<path d="M719.699 639.555L0 643.793V650.116L719.699 654.354L1440 658.751V635.159L719.699 639.555Z" fill="white"/>
<path d="M719.699 669.675L0 674.479V679.692L719.699 684.474L1440 689.415V664.734L719.699 669.675Z" fill="white"/>
<path d="M719.699 699.794L0 705.143V709.245L719.699 714.594L1440 720.055V694.333L719.699 699.794Z" fill="white"/>
<path d="M719.699 729.913L0 735.829V738.82L719.699 744.712L1440 750.696V723.93L719.699 729.913Z" fill="white"/>
<path d="M719.699 760.033L0 766.492V768.373L719.699 774.832L1440 781.337V753.529L719.699 760.033Z" fill="white"/>
<path d="M719.699 790.153L0 797.178V797.949L719.699 804.952L1440 812V783.127L719.699 790.153Z" fill="white"/>
</g>
</svg>
