<svg width="32" height="32" viewBox="0 0 32 32" fill="none" xmlns="http://www.w3.org/2000/svg">
<path d="M27.5 3.5H4.5C3.94688 3.5 3.5 3.94688 3.5 4.5V27.5C3.5 28.0531 3.94688 28.5 4.5 28.5H27.5C28.0531 28.5 28.5 28.0531 28.5 27.5V4.5C28.5 3.94688 28.0531 3.5 27.5 3.5ZM24 9.92813L22.725 11.15C22.6125 11.2344 22.5594 11.3719 22.5813 11.5063V20.4969C22.5594 20.6344 22.6125 20.7719 22.725 20.8531L23.975 22.075V22.3469H17.7V22.0875L18.9906 20.8344C19.1188 20.7063 19.1187 20.6688 19.1187 20.4781V13.2031L15.525 22.3156H15.0406L10.8594 13.2031V19.3125C10.8219 19.5688 10.9125 19.8281 11.0938 20.0125L12.775 22.0469V22.3188H8V22.0469L9.68125 20.0125C9.76983 19.921 9.83575 19.81 9.87374 19.6885C9.91173 19.5669 9.92072 19.4382 9.9 19.3125V12.25C9.92188 12.0531 9.84688 11.8625 9.69688 11.7281L8.20312 9.92813V9.65625H12.8438L16.425 17.5156L19.5781 9.6625H24V9.92813Z" fill="black"/>
</svg>
