<svg width="382" height="417" viewBox="0 0 382 417" fill="none" xmlns="http://www.w3.org/2000/svg">
<g clip-path="url(#clip0)">
<path d="M221.492 -27.1627H233.146C254.931 -27.1627 275.824 -18.7974 291.229 -3.90701C306.634 10.9834 315.288 31.1791 315.288 52.2373V74.8365C315.288 95.8946 306.634 116.09 291.229 130.981C275.824 145.871 254.931 154.236 233.146 154.236H221.492V-27.1627Z" fill="#1DBFF2"/>
<path d="M86.0322 19.4188L95.3999 12.7185C112.912 0.19262 134.855 -5.09571 156.401 -1.98312C177.948 1.12948 197.332 12.3882 210.29 29.3159L224.197 47.4824C230.623 55.8616 235.279 65.3825 237.897 75.5013C240.516 85.62 241.046 96.1383 239.457 106.455C237.869 116.772 234.193 126.685 228.64 135.629C223.087 144.572 215.765 152.37 207.094 158.577L197.726 165.278L86.0557 19.4021L86.0322 19.4188Z" fill="#FF8577"/>
<path d="M5.80469 134.821L9.21182 124.049C15.5813 103.911 29.9659 87.0434 49.2013 77.1572C68.4368 67.271 90.9472 65.176 111.781 71.3328L134.139 77.9402C154.972 84.097 172.422 98.0013 182.65 116.595C192.878 135.188 195.045 156.947 188.676 177.085L185.269 187.857L5.80469 134.821Z" fill="#FFC700"/>
<path d="M12.3198 273.605L8.42983 262.987C1.15769 243.137 2.34121 221.307 11.7201 202.3C21.099 183.293 37.9049 168.666 58.4407 161.637L80.4794 154.093C101.009 147.062 123.588 148.2 143.25 157.257C162.912 166.314 178.048 182.548 185.329 202.39L189.219 213.009L12.3052 273.565L12.3198 273.605Z" fill="#A837DD"/>
<path d="M103.017 381.506L93.3555 375.207C75.2945 363.432 62.8126 345.203 58.6558 324.532C54.4989 303.861 59.0077 282.44 71.19 264.982L84.2637 246.246C96.4465 228.821 115.284 216.779 136.641 212.765C157.999 208.75 180.132 213.09 198.183 224.832L207.844 231.131L102.944 381.459L103.017 381.506Z" fill="#11A858"/>
<path d="M242.214 416.072L230.572 416.564C208.807 417.482 187.556 410.006 171.494 395.779C155.432 381.552 145.875 361.741 144.925 340.703L143.905 318.125C142.955 297.087 150.689 276.545 165.407 261.02C180.125 245.494 200.621 236.256 222.386 235.337L234.028 234.846L242.214 416.072Z" fill="#1DBFF2"/>
<path d="M375.452 363.802L366.396 370.891C349.465 384.144 327.782 390.352 306.116 388.151C284.45 385.95 264.575 375.519 250.865 359.154L236.152 341.591C222.442 325.226 216.019 304.266 218.296 283.324C220.574 262.381 231.364 243.17 248.295 229.918L257.351 222.829L375.452 363.802Z" fill="#FF8577"/>
<path d="M342.188 2.82361L352.125 8.70924C370.7 19.7121 383.992 37.397 389.078 57.8733C394.164 78.3497 390.626 99.9401 379.243 117.895L367.027 137.164C355.644 155.119 337.349 167.968 316.165 172.884C294.982 177.8 272.646 174.38 254.07 163.377L244.134 157.492L342.188 2.82361Z" fill="#11A858"/>
<path d="M436.004 91.2805L440.369 101.725C448.53 121.249 448.333 143.108 439.821 162.493C431.308 181.877 415.179 197.198 394.98 205.087L373.248 213.574C353.049 221.462 330.435 221.272 310.382 213.043C290.328 204.815 274.477 189.224 266.316 169.699L261.951 159.255L436.004 91.2805Z" fill="#A837DD"/>
<path d="M448.768 229.711L445.85 240.616C440.395 261.004 426.785 278.462 408.014 289.149C389.243 299.837 366.849 302.88 345.757 297.607L323.122 291.949C302.031 286.676 283.97 273.521 272.913 255.376C261.856 237.232 258.709 215.585 264.163 195.197L267.081 184.292L448.768 229.711Z" fill="#FEC700"/>
</g>
<defs>
<clipPath id="clip0">
<rect width="382" height="416.612" fill="white"/>
</clipPath>
</defs>
</svg>
