<svg width="106" height="44" viewBox="0 0 106 44" fill="none" xmlns="http://www.w3.org/2000/svg">
<path d="M0 0.859863H4.97923V33.7146H0V0.859863Z" fill="#515E66"/>
<path d="M50.292 0.859863H61.7773C66.1147 0.859863 69.6684 2.7921 71.7898 6.39309C73.4113 9.16308 73.5464 10.4129 73.5464 17.2839C73.5464 24.675 73.1748 25.9654 71.702 28.2692C70.6133 29.9884 69.0958 31.3946 67.2987 32.3494C65.5017 33.3041 63.4871 33.7747 61.453 33.7146H50.292V0.859863ZM55.278 29.0327H61.2301C64.0474 29.0327 66.0336 28.0598 67.3105 26.1681C68.4185 24.5061 68.5537 23.5873 68.5537 17.4933C68.5537 11.5885 68.4185 10.1562 67.0808 8.35236C65.554 6.27825 63.892 5.58235 61.2166 5.58235H55.278V29.0327Z" fill="#515E66"/>
<path d="M97.3483 26.3978H84.8834L82.3431 33.7349H77.0801L89.0586 0.859863H93.2136L105.165 33.7146H99.8683L97.3483 26.3978ZM95.916 21.9726L91.1868 7.61593H91.0854L86.3562 21.9726H95.916Z" fill="#515E66"/>
<path d="M27.16 0.516049L24.1981 3.47795C23.9131 3.7629 23.9131 4.2249 24.1981 4.50985L27.16 7.47176C27.4449 7.75671 27.9069 7.75671 28.1919 7.47177L31.1538 4.50986C31.4387 4.22492 31.4387 3.76291 31.1538 3.47797L28.1919 0.516056C27.9069 0.231108 27.4449 0.231101 27.16 0.516049Z" fill="#F24D1D"/>
<path d="M13.1608 9.27808C13.1599 9.29412 13.1599 9.31021 13.1608 9.32626C13.1599 9.31021 13.1599 9.29412 13.1608 9.27808Z" fill="#F24D1D"/>
<path d="M37.4355 33.6877C37.5109 33.7176 37.591 33.7335 37.672 33.735C37.5907 33.7364 37.5101 33.7203 37.4355 33.6877Z" fill="#F24D1D"/>
<path d="M18.1808 33.5322C18.1258 33.5906 18.059 33.6367 17.9849 33.6674C18.0585 33.6358 18.1251 33.5899 18.1808 33.5322Z" fill="#F24D1D"/>
<path d="M42.2256 29.2354V29.6272C42.2256 29.4786 42.2323 29.3502 42.2256 29.2354Z" fill="#F24D1D"/>
<path d="M36.9693 33.0256V29.2354C36.9693 29.0437 37.0454 28.8598 37.181 28.7243C37.3166 28.5887 37.5004 28.5125 37.6922 28.5125H41.5093C41.653 28.5095 41.7943 28.5498 41.9148 28.6281C42.0353 28.7064 42.1294 28.8192 42.185 28.9517C42.1482 28.8584 42.093 28.7734 42.0228 28.7017L33.0643 19.7432C32.9285 19.6054 32.8524 19.4197 32.8524 19.2263C32.8524 19.0329 32.9285 18.8472 33.0643 18.7095L41.9552 9.82525L42.0025 9.7509C41.8756 9.87325 41.7059 9.94115 41.5296 9.94009H37.7124C37.5219 9.9401 37.339 9.86485 37.2036 9.73074C37.0683 9.59663 36.9913 9.4145 36.9895 9.22395V5.40675C36.989 5.31623 37.0067 5.22653 37.0415 5.14297C37.0763 5.05941 37.1276 4.9837 37.1922 4.92034C37.1922 4.92034 37.1922 4.92034 37.1517 4.92034L28.2202 13.8316C28.0824 13.9673 27.8967 14.0434 27.7033 14.0434C27.5099 14.0434 27.3243 13.9673 27.1865 13.8316L18.2347 4.91357C18.3496 5.04196 18.4144 5.20747 18.4171 5.37974V9.19694C18.4153 9.38633 18.3393 9.56746 18.2054 9.70138C18.0715 9.8353 17.8903 9.91132 17.701 9.91308H13.8635C13.6855 9.91243 13.5143 9.84489 13.3838 9.72389L22.3086 18.6689C22.4443 18.8067 22.5204 18.9924 22.5204 19.1858C22.5204 19.3792 22.4443 19.5648 22.3086 19.7026L13.3906 28.6612C13.3183 28.7351 13.2609 28.8223 13.2217 28.9179C13.2797 28.7877 13.3747 28.6774 13.4947 28.6005C13.6148 28.5237 13.7547 28.4837 13.8973 28.4855H17.7145C17.905 28.4873 18.0872 28.5642 18.2213 28.6996C18.3554 28.835 18.4306 29.0179 18.4306 29.2084V33.0256C18.4293 33.2153 18.3542 33.397 18.2212 33.5323L18.2617 33.4985L27.2 24.567C27.3378 24.4313 27.5234 24.3551 27.7168 24.3551C27.9102 24.3551 28.0959 24.4313 28.2337 24.567L37.1855 33.512C37.2569 33.5873 37.3448 33.6451 37.4422 33.6809C37.3066 33.632 37.1888 33.5433 37.1045 33.4263C37.0201 33.3094 36.973 33.1697 36.9693 33.0256Z" fill="#F24D1D"/>
<path d="M42.1714 28.9246C42.2036 29.0136 42.2218 29.107 42.2254 29.2016C42.2218 29.107 42.2036 29.0136 42.1714 28.9246Z" fill="#F24D1D"/>
<path d="M13.1948 28.9719C13.1711 29.0393 13.1574 29.1099 13.1543 29.1814C13.1539 29.1096 13.1677 29.0384 13.1948 28.9719Z" fill="#F24D1D"/>
<path d="M17.6808 4.66357H13.8636C13.4681 4.66357 13.1475 4.9842 13.1475 5.37972V9.19691C13.1475 9.59243 13.4681 9.91305 13.8636 9.91305H17.6808C18.0763 9.91305 18.3969 9.59243 18.3969 9.19691V5.37972C18.3969 4.9842 18.0763 4.66357 17.6808 4.66357Z" fill="#515E66"/>
<path d="M41.5091 4.6637H37.7122C37.5216 4.66369 37.3387 4.73894 37.2034 4.87306C37.068 5.00717 36.991 5.18929 36.9893 5.37984V9.19704C36.991 9.38759 37.068 9.56972 37.2034 9.70383C37.3387 9.83794 37.5216 9.91319 37.7122 9.91318H41.5293C41.7187 9.91142 41.8999 9.8354 42.0338 9.70148C42.1677 9.56755 42.2437 9.38643 42.2455 9.19704V5.37984C42.2446 5.28433 42.2248 5.18994 42.1872 5.10212C42.1497 5.0143 42.0951 4.93482 42.0266 4.86823C41.9581 4.80164 41.8771 4.74928 41.7883 4.71417C41.6995 4.67907 41.6046 4.66191 41.5091 4.6637Z" fill="#515E66"/>
<path d="M17.6808 28.4922H13.8636C13.4681 28.4922 13.1475 28.8128 13.1475 29.2083V33.0255C13.1475 33.421 13.4681 33.7417 13.8636 33.7417H17.6808C18.0763 33.7417 18.3969 33.421 18.3969 33.0255V29.2083C18.3969 28.8128 18.0763 28.4922 17.6808 28.4922Z" fill="#515E66"/>
<path d="M41.5093 28.4857H37.7124C37.6135 28.4828 37.515 28.5003 37.4231 28.5371C37.3312 28.5738 37.2479 28.6291 37.1782 28.6994C37.1085 28.7697 37.054 28.8536 37.0181 28.9458C36.9821 29.038 36.9655 29.1367 36.9693 29.2356V33.0528C36.971 33.2433 37.048 33.4254 37.1834 33.5595C37.3188 33.6937 37.5016 33.7689 37.6922 33.7689H41.5093C41.6987 33.7671 41.8799 33.6911 42.0138 33.5572C42.1477 33.4233 42.2237 33.2421 42.2255 33.0528V29.2356C42.2291 29.1389 42.2133 29.0426 42.179 28.9522C42.1447 28.8618 42.0927 28.7792 42.0259 28.7093C41.9591 28.6393 41.879 28.5835 41.7903 28.5451C41.7016 28.5067 41.606 28.4865 41.5093 28.4857Z" fill="#515E66"/>
<path d="M1.11996 43.225L0.00923682 39.8605H0.547281L1.31394 42.4214H1.32317L2.08983 39.8605H2.62787L1.51715 43.225H1.11996ZM17.2208 43.225V39.8605H19.373V40.3431H17.7312V41.3014H19.1306V41.7563H17.7312V42.7447H19.373V43.225H17.2208ZM34.0838 43.225V39.8605H34.5941V42.7447H36.2359V43.225H34.0838ZM50.9467 43.225V39.8605H51.457V42.7447H53.0989V43.225H50.9467ZM67.6964 41.5439C67.6964 41.139 67.7072 40.878 67.7288 40.761C67.7503 40.644 67.7888 40.5363 67.8442 40.4378C67.9227 40.2915 68.0513 40.1537 68.2299 40.0244C68.41 39.8951 68.6324 39.8304 68.8972 39.8304C69.1605 39.8304 69.3814 39.8951 69.56 40.0244C69.7401 40.1537 69.8709 40.2915 69.9525 40.4378C70.0064 40.5363 70.0441 40.644 70.0657 40.761C70.0872 40.878 70.098 41.139 70.098 41.5439C70.098 41.9487 70.0872 42.2097 70.0657 42.3267C70.0441 42.4437 70.0064 42.5514 69.9525 42.65C69.8709 42.7978 69.7401 42.9355 69.56 43.0633C69.3814 43.1896 69.1605 43.2527 68.8972 43.2527C68.6324 43.2527 68.41 43.1896 68.2299 43.0633C68.0513 42.9355 67.9227 42.7978 67.8442 42.65C67.7888 42.5514 67.7503 42.4437 67.7288 42.3267C67.7072 42.2097 67.6964 41.9487 67.6964 41.5439ZM68.2068 41.5439C68.2068 41.8902 68.2183 42.115 68.2414 42.2182C68.266 42.3213 68.3115 42.4144 68.3777 42.4976C68.4285 42.5653 68.4977 42.6238 68.5855 42.6731C68.6732 42.7208 68.7772 42.7447 68.8972 42.7447C69.0173 42.7447 69.1212 42.7208 69.209 42.6731C69.2967 42.6238 69.366 42.5653 69.4168 42.4976C69.483 42.4144 69.5276 42.3213 69.5507 42.2182C69.5754 42.115 69.5877 41.8902 69.5877 41.5439C69.5877 41.199 69.5754 40.975 69.5507 40.8719C69.5276 40.7687 69.483 40.6741 69.4168 40.5879C69.366 40.5232 69.2967 40.4662 69.209 40.417C69.1212 40.3677 69.0173 40.3431 68.8972 40.3431C68.7772 40.3431 68.6732 40.3677 68.5855 40.417C68.4977 40.4662 68.4285 40.5232 68.3777 40.5879C68.3115 40.6741 68.266 40.7687 68.2414 40.8719C68.2183 40.975 68.2068 41.199 68.2068 41.5439ZM85.4415 40.3131V41.3337H86.2127C86.4036 41.3337 86.5468 41.2806 86.6423 41.1744C86.7377 41.0682 86.7854 40.9435 86.7854 40.8003C86.7854 40.6294 86.7285 40.5016 86.6145 40.417C86.5191 40.3477 86.3952 40.3131 86.2428 40.3131H85.4415ZM84.9311 43.225V39.8605H86.2474C86.5353 39.8605 86.7631 39.9343 86.9309 40.0821C87.0248 40.1637 87.1041 40.2661 87.1688 40.3893C87.235 40.5124 87.2681 40.6494 87.2681 40.8003C87.2681 41.0174 87.2096 41.2098 87.0926 41.3776C86.9771 41.5439 86.8178 41.6616 86.6145 41.7309L87.3951 43.225H86.79L86.095 41.7886H85.4415V43.225H84.9311ZM102.053 43.225V39.8605H104.205V40.3431H102.563V41.3014H103.962V41.7563H102.563V42.7447H104.205V43.225H102.053Z" fill="#515E66"/>
</svg>
