<svg width="337" height="266" viewBox="0 0 337 266" fill="none" xmlns="http://www.w3.org/2000/svg">
<path d="M304 114.071L235.023 115.212L294.726 149.754L227.994 132.247L276.138 181.6L216.612 146.764L249.653 207.251L201.746 157.661L217.223 224.837L184.497 164.172L181.248 233L166.105 165.766L144.406 231.19L147.99 162.363L109.416 219.506L131.45 154.199L78.8753 198.812L117.725 141.866L55.0495 170.664L107.84 126.306L39.7103 137.145L102.544 108.661L34 100.734L102.189 90.23L38.332 64.1271L106.836 72.3888L52.3912 30.0574L116.111 56.4751L75.1341 1.02343L129.362 43.6499L104.867 -20.7913L145.568 34.8571L139.405 -33.7937L163.565 30.7656L176.148 -37L181.996 31.6704L212.418 -30.1743L199.481 37.5126L245.479 -13.8476L214.761 47.8594L272.928 10.7998L226.655 61.9436L292.678 41.9385L234.334 78.703L303.311 77.2277L237.189 96.8984L304 114.071Z" stroke="#FFEF62" stroke-width="8.85246" stroke-miterlimit="10"/>
</svg>
