<svg width="56" height="56" viewBox="0 0 56 56" fill="none" xmlns="http://www.w3.org/2000/svg">
<path d="M50 0H6C2.6875 0 0 2.6875 0 6V50C0 53.3125 2.6875 56 6 56H50C53.3125 56 56 53.3125 56 50V6C56 2.6875 53.3125 0 50 0ZM43.8875 19.85C43.9125 20.2 43.9125 20.5625 43.9125 20.9125C43.9125 31.75 35.6625 44.2375 20.5875 44.2375C15.9375 44.2375 11.625 42.8875 8 40.5625C8.6625 40.6375 9.3 40.6625 9.975 40.6625C13.8125 40.6625 17.3375 39.3625 20.15 37.1625C16.55 37.0875 13.525 34.725 12.4875 31.475C13.75 31.6625 14.8875 31.6625 16.1875 31.325C12.4375 30.5625 9.625 27.2625 9.625 23.275V23.175C10.7125 23.7875 11.9875 24.1625 13.325 24.2125C12.2005 23.4645 11.2787 22.4498 10.6418 21.2589C10.0049 20.068 9.67279 18.738 9.675 17.3875C9.675 15.8625 10.075 14.4625 10.7875 13.25C14.825 18.225 20.8875 21.475 27.6875 21.825C26.525 16.2625 30.6875 11.75 35.6875 11.75C38.05 11.75 40.175 12.7375 41.675 14.3375C43.525 13.9875 45.3 13.3 46.875 12.3625C46.2625 14.2625 44.975 15.8625 43.275 16.875C44.925 16.7 46.525 16.2375 48 15.6C46.8875 17.2375 45.4875 18.6875 43.8875 19.85Z" fill="white"/>
</svg>
