<svg width="32" height="32" viewBox="0 0 32 32" fill="none" xmlns="http://www.w3.org/2000/svg">
<path fill-rule="evenodd" clip-rule="evenodd" d="M5 6.838C5 6.35053 5.19365 5.88303 5.53834 5.53834C5.88303 5.19365 6.35053 5 6.838 5H25.16C25.4016 4.99961 25.6409 5.04687 25.8641 5.13907C26.0874 5.23127 26.2903 5.36661 26.4612 5.53734C26.6322 5.70807 26.7677 5.91083 26.8602 6.13401C26.9526 6.3572 27.0001 6.59643 27 6.838V25.16C27.0003 25.4016 26.9529 25.6409 26.8606 25.8642C26.7683 26.0875 26.6328 26.2904 26.462 26.4613C26.2912 26.6322 26.0884 26.7678 25.8651 26.8602C25.6419 26.9526 25.4026 27.0001 25.161 27H6.838C6.59655 27 6.35746 26.9524 6.1344 26.86C5.91134 26.7676 5.70867 26.6321 5.53798 26.4613C5.3673 26.2905 5.23193 26.0878 5.13962 25.8647C5.04731 25.6416 4.99987 25.4025 5 25.161V6.838ZM13.708 13.388H16.687V14.884C17.117 14.024 18.217 13.25 19.87 13.25C23.039 13.25 23.79 14.963 23.79 18.106V23.928H20.583V18.822C20.583 17.032 20.153 16.022 19.061 16.022C17.546 16.022 16.916 17.111 16.916 18.822V23.928H13.708V13.388ZM8.208 23.791H11.416V13.25H8.208V23.79V23.791ZM11.875 9.812C11.881 10.0867 11.8322 10.3598 11.7312 10.6153C11.6303 10.8708 11.4794 11.1036 11.2872 11.3C11.0951 11.4964 10.8657 11.6525 10.6125 11.759C10.3592 11.8655 10.0872 11.9204 9.8125 11.9204C9.53776 11.9204 9.26579 11.8655 9.01255 11.759C8.7593 11.6525 8.52989 11.4964 8.33777 11.3C8.14565 11.1036 7.99469 10.8708 7.89376 10.6153C7.79283 10.3598 7.74395 10.0867 7.75 9.812C7.76187 9.27286 7.98439 8.75979 8.36989 8.38269C8.75539 8.00558 9.27322 7.79442 9.8125 7.79442C10.3518 7.79442 10.8696 8.00558 11.2551 8.38269C11.6406 8.75979 11.8631 9.27286 11.875 9.812Z" fill="black"/>
</svg>
