<svg width="132" height="107" viewBox="0 0 132 107" fill="none" xmlns="http://www.w3.org/2000/svg">
<g clip-path="url(#clip0)">
<path d="M104.575 57.3581L105.528 49.0931L105.537 49.0192L105.537 48.9448C105.537 26.9655 87.726 9.15449 65.7467 9.15449C43.7675 9.15449 25.9565 26.9655 25.9565 48.9448L25.9565 49.0192L25.965 49.0931L26.9239 57.4038C21.7761 58.562 17.8906 63.1889 17.8906 68.5595C17.8906 74.957 23.0528 80.1192 29.4502 80.1192L29.4752 80.1192C29.6306 80.1192 29.8104 80.1192 29.997 80.113C34.7224 95.4736 48.8771 106.517 65.7467 106.517C82.6388 106.517 96.7978 95.2719 101.509 80.061C101.722 80.0919 101.97 80.1192 102.227 80.1192C108.624 80.1192 113.786 74.957 113.786 68.5595C113.786 63.0299 109.903 58.3624 104.575 57.3581Z" fill="#FFD3B6" stroke="black" stroke-width="2.58798"/>
<mask id="path-2-outside-1" maskUnits="userSpaceOnUse" x="51.8132" y="0.233948" width="31" height="27" fill="black">
<rect fill="white" x="51.8132" y="0.233948" width="31" height="27"/>
<path d="M70.9121 7.33961L71.0954 7.33961C71.2787 7.52292 71.8286 7.52292 72.012 7.70624C72.3786 7.88955 72.7452 8.07287 73.1118 8.4395C73.4785 8.80613 73.8451 9.17276 74.0284 9.53939C74.5784 10.456 74.945 11.5559 74.945 13.0224C74.945 13.7556 74.945 14.4889 74.5784 15.2222C74.3951 15.9554 74.2117 16.6887 73.6618 17.422C73.2952 18.1552 72.7452 18.7052 72.1953 19.2551C71.6453 19.8051 70.9121 20.1717 70.3621 20.5383C69.6288 20.905 68.8956 21.0883 68.1623 21.2716C67.4291 21.4549 66.6958 21.4549 65.9625 21.4549C64.496 21.4549 63.2128 21.2716 62.2962 21.0883C61.3796 20.905 60.8297 20.7216 60.8297 20.7216C60.6464 20.7216 60.6464 20.7216 60.4631 20.905C60.2798 21.0883 60.4631 21.2716 60.4631 21.2716C60.4631 21.2716 60.8297 21.6382 61.7463 22.1882C62.1129 22.5548 62.6629 22.7381 63.2128 23.1047C63.7627 23.4714 64.496 23.838 65.4126 24.0213C66.3292 24.2046 67.2457 24.5713 68.1623 24.5713C69.2622 24.7546 70.3621 24.5713 71.462 24.388C73.8451 23.838 76.0449 22.1882 77.6947 19.9884C79.1613 17.7886 80.0778 15.2222 80.0778 12.6558C80.0778 11.3725 79.8945 10.0893 79.3446 8.80613C78.7946 7.70624 78.2447 6.42303 77.3281 5.68977C76.4115 4.77319 75.4949 4.22324 74.5784 3.85661C74.2117 3.67329 73.6618 3.48998 73.2952 3.48998C72.9285 3.30666 72.3786 3.30666 72.012 3.30666L69.8122 3.30666C66.8791 2.94003 62.1129 3.85661 58.8132 8.4395C61.7463 7.70624 64.6793 7.33961 67.6124 7.33961C69.2622 7.15629 69.9955 7.15629 70.9121 7.33961"/>
</mask>
<path d="M70.9121 7.33961L71.0954 7.33961C71.2787 7.52292 71.8286 7.52292 72.012 7.70624C72.3786 7.88955 72.7452 8.07287 73.1118 8.4395C73.4785 8.80613 73.8451 9.17276 74.0284 9.53939C74.5784 10.456 74.945 11.5559 74.945 13.0224C74.945 13.7556 74.945 14.4889 74.5784 15.2222C74.3951 15.9554 74.2117 16.6887 73.6618 17.422C73.2952 18.1552 72.7452 18.7052 72.1953 19.2551C71.6453 19.8051 70.9121 20.1717 70.3621 20.5383C69.6288 20.905 68.8956 21.0883 68.1623 21.2716C67.4291 21.4549 66.6958 21.4549 65.9625 21.4549C64.496 21.4549 63.2128 21.2716 62.2962 21.0883C61.3796 20.905 60.8297 20.7216 60.8297 20.7216C60.6464 20.7216 60.6464 20.7216 60.4631 20.905C60.2798 21.0883 60.4631 21.2716 60.4631 21.2716C60.4631 21.2716 60.8297 21.6382 61.7463 22.1882C62.1129 22.5548 62.6629 22.7381 63.2128 23.1047C63.7627 23.4714 64.496 23.838 65.4126 24.0213C66.3292 24.2046 67.2457 24.5713 68.1623 24.5713C69.2622 24.7546 70.3621 24.5713 71.462 24.388C73.8451 23.838 76.0449 22.1882 77.6947 19.9884C79.1613 17.7886 80.0778 15.2222 80.0778 12.6558C80.0778 11.3725 79.8945 10.0893 79.3446 8.80613C78.7946 7.70624 78.2447 6.42303 77.3281 5.68977C76.4115 4.77319 75.4949 4.22324 74.5784 3.85661C74.2117 3.67329 73.6618 3.48998 73.2952 3.48998C72.9285 3.30666 72.3786 3.30666 72.012 3.30666L69.8122 3.30666C66.8791 2.94003 62.1129 3.85661 58.8132 8.4395C61.7463 7.70624 64.6793 7.33961 67.6124 7.33961C69.2622 7.15629 69.9955 7.15629 70.9121 7.33961" fill="black"/>
<path d="M71.0954 7.33961L72.9254 5.50963L72.1674 4.75162L71.0954 4.75162L71.0954 7.33961ZM72.012 7.70624L70.182 9.53622L70.4789 9.83318L70.8546 10.021L72.012 7.70624ZM74.0284 9.53939L71.7137 10.6968L71.7581 10.7857L71.8092 10.8709L74.0284 9.53939ZM74.5784 15.2222L72.2636 14.0648L72.1366 14.3189L72.0677 14.5945L74.5784 15.2222ZM73.6618 17.422L71.5914 15.8692L71.4514 16.0559L71.347 16.2646L73.6618 17.422ZM70.3621 20.5383L71.5195 22.8531L71.6636 22.781L71.7977 22.6917L70.3621 20.5383ZM60.8297 20.7216L61.6481 18.2665L61.2497 18.1337L60.8297 18.1337L60.8297 20.7216ZM60.4631 21.2716L62.2931 19.4416L62.293 19.4416L60.4631 21.2716ZM61.7463 22.1882L63.5763 20.3582L63.351 20.1329L63.0778 19.969L61.7463 22.1882ZM68.1623 24.5713L68.5878 22.0185L68.3765 21.9833L68.1623 21.9833L68.1623 24.5713ZM71.462 24.388L71.8875 26.9407L71.9662 26.9276L72.0439 26.9097L71.462 24.388ZM77.6947 19.9884L79.7651 21.5412L79.8082 21.4837L79.8481 21.4239L77.6947 19.9884ZM79.3446 8.80613L81.7233 7.78667L81.6934 7.71677L81.6593 7.64875L79.3446 8.80613ZM77.3281 5.68977L75.4981 7.51975L75.5995 7.6211L75.7114 7.71064L77.3281 5.68977ZM74.5784 3.85661L73.421 6.17137L73.5173 6.21951L73.6172 6.25949L74.5784 3.85661ZM73.2952 3.48998L72.1378 5.80474L72.6842 6.07796L73.2952 6.07796L73.2952 3.48998ZM69.8122 3.30666L69.4912 5.87466L69.651 5.89465L69.8122 5.89465L69.8122 3.30666ZM58.8132 8.4395L56.713 6.92733L52.5819 12.665L59.4409 10.9502L58.8132 8.4395ZM67.6124 7.33961L67.6124 9.92759L67.7557 9.92759L67.8982 9.91176L67.6124 7.33961ZM70.9121 9.92759L71.0954 9.92759L71.0954 4.75162L70.9121 4.75162L70.9121 9.92759ZM69.2654 9.16959C69.5115 9.41574 69.761 9.57481 69.9441 9.67434C70.1296 9.77518 70.2982 9.84227 70.4197 9.88566C70.6423 9.96517 70.8645 10.0183 70.926 10.0336C71.0478 10.0641 71.009 10.0568 70.9467 10.0346C70.9055 10.0199 70.8113 9.98427 70.6917 9.91924C70.5744 9.85552 70.3823 9.73654 70.182 9.53622L73.8419 5.87626C73.5958 5.6301 73.3464 5.47103 73.1633 5.3715C72.9777 5.27066 72.8091 5.20357 72.6876 5.16018C72.465 5.08067 72.2429 5.02759 72.1813 5.01221C72.0596 4.98176 72.0984 4.98901 72.1606 5.01124C72.2019 5.02599 72.296 5.06157 72.4157 5.12661C72.5329 5.19033 72.725 5.3093 72.9254 5.50963L69.2654 9.16959ZM70.8546 10.021C71.0519 10.1197 71.1272 10.1593 71.1903 10.1987C71.2344 10.2263 71.2578 10.2454 71.2819 10.2695L74.9418 6.60952C74.2488 5.91645 73.5369 5.57527 73.1693 5.39147L70.8546 10.021ZM71.2819 10.2695C71.4782 10.4658 71.5979 10.587 71.6912 10.6936C71.7331 10.7415 71.7526 10.7674 71.7579 10.7749C71.7639 10.7831 71.7433 10.7561 71.7137 10.6968L76.3432 8.38201C75.9311 7.55777 75.2047 6.87238 74.9418 6.60952L71.2819 10.2695ZM71.8092 10.8709C72.123 11.3939 72.357 12.0349 72.357 13.0224L77.533 13.0224C77.533 11.0768 77.0337 9.51804 76.2476 8.20789L71.8092 10.8709ZM72.357 13.0224C72.357 13.8208 72.3192 13.9535 72.2636 14.0648L76.8931 16.3796C77.5708 15.0243 77.533 13.6905 77.533 13.0224L72.357 13.0224ZM72.0677 14.5945C71.8797 15.3464 71.7923 15.6014 71.5914 15.8692L75.7322 18.9748C76.6312 17.776 76.9104 16.5645 77.0891 15.8499L72.0677 14.5945ZM71.347 16.2646C71.1971 16.5644 70.9565 16.8339 70.3653 17.4251L74.0252 21.0851C74.5339 20.5764 75.3932 19.746 75.9766 18.5793L71.347 16.2646ZM70.3653 17.4251C70.2825 17.5079 70.1405 17.6205 69.8792 17.7885C69.7495 17.8719 69.6187 17.9514 69.4537 18.0522C69.3017 18.1451 69.112 18.2614 68.9266 18.385L71.7977 22.6917C71.8872 22.632 71.9954 22.5649 72.1527 22.4688C72.2971 22.3806 72.4871 22.2652 72.6782 22.1424C73.0585 21.8979 73.5581 21.5523 74.0252 21.0851L70.3653 17.4251ZM69.2047 18.2236C68.7626 18.4446 68.2984 18.5699 67.5346 18.7609L68.79 23.7823C69.4928 23.6066 70.4951 23.3653 71.5195 22.8531L69.2047 18.2236ZM67.5346 18.7609C67.1597 18.8546 66.7439 18.8669 65.9625 18.8669L65.9625 24.0429C66.6477 24.0429 67.6984 24.0552 68.79 23.7823L67.5346 18.7609ZM65.9625 18.8669C64.7054 18.8669 63.5964 18.7091 62.8038 18.5505L61.7887 23.626C62.8292 23.8341 64.2866 24.0429 65.9625 24.0429L65.9625 18.8669ZM62.8038 18.5505C62.41 18.4718 62.1015 18.3943 61.9002 18.3394C61.7997 18.312 61.7265 18.2904 61.6835 18.2773C61.6619 18.2707 61.648 18.2663 61.642 18.2644C61.639 18.2634 61.6379 18.2631 61.6389 18.2634C61.6394 18.2636 61.6404 18.2639 61.642 18.2644C61.6427 18.2647 61.6436 18.265 61.6446 18.2653C61.6451 18.2655 61.6457 18.2657 61.6463 18.2659C61.6466 18.266 61.6468 18.266 61.6472 18.2662C61.6473 18.2662 61.6475 18.2663 61.6476 18.2663C61.6478 18.2664 61.6481 18.2665 60.8297 20.7216C60.0113 23.1768 60.0116 23.1769 60.0118 23.177C60.0119 23.177 60.0121 23.1771 60.0123 23.1771C60.0126 23.1773 60.013 23.1774 60.0133 23.1775C60.014 23.1777 60.0148 23.178 60.0156 23.1782C60.0171 23.1787 60.0188 23.1793 60.0206 23.1799C60.0243 23.1811 60.0285 23.1825 60.0333 23.1841C60.0428 23.1872 60.0545 23.1909 60.0683 23.1953C60.0959 23.2042 60.1321 23.2155 60.1764 23.229C60.2651 23.256 60.3867 23.2917 60.5383 23.333C60.8411 23.4156 61.2658 23.5214 61.7887 23.626L62.8038 18.5505ZM60.8297 18.1337C60.8141 18.1337 60.7661 18.1336 60.7171 18.1345C60.6664 18.1355 60.5743 18.1383 60.4633 18.1494C60.2063 18.1751 59.8609 18.2439 59.489 18.4298C59.1614 18.5936 58.9373 18.7884 58.8406 18.8754C58.7495 18.9574 58.6593 19.0488 58.6331 19.075L62.2931 22.7349C62.3585 22.6695 62.337 22.6922 62.3032 22.7226C62.2638 22.758 62.0856 22.9184 61.8038 23.0593C61.4777 23.2223 61.1782 23.2797 60.9784 23.2996C60.8496 23.3125 60.736 23.3096 60.8297 23.3096L60.8297 18.1337ZM58.6331 19.075C58.267 19.441 57.9676 19.934 57.848 20.532C57.7322 21.111 57.8191 21.6154 57.9392 21.9754C58.0556 22.3247 58.2172 22.5844 58.3314 22.7443C58.3921 22.8293 58.45 22.9008 58.4999 22.9583C58.5251 22.9874 58.549 23.0138 58.5711 23.0375C58.5822 23.0494 58.593 23.0606 58.6033 23.0713C58.6085 23.0766 58.6135 23.0818 58.6185 23.0869C58.621 23.0894 58.6234 23.0919 58.6259 23.0943C58.6271 23.0956 58.6283 23.0968 58.6295 23.098C58.6301 23.0986 58.631 23.0995 58.6313 23.0998C58.6322 23.1007 58.6331 23.1016 60.4631 21.2716C62.293 19.4416 62.2939 19.4425 62.2948 19.4434C62.2951 19.4437 62.296 19.4446 62.2966 19.4452C62.2978 19.4464 62.299 19.4476 62.3002 19.4488C62.3026 19.4512 62.305 19.4536 62.3074 19.456C62.3122 19.4609 62.317 19.4658 62.3218 19.4708C62.3314 19.4808 62.3412 19.491 62.351 19.5015C62.3705 19.5224 62.3907 19.5447 62.4113 19.5684C62.4518 19.6151 62.4968 19.6709 62.5432 19.7358C62.6288 19.8556 62.756 20.0581 62.8495 20.3386C62.9466 20.6299 63.0221 21.0541 62.9235 21.5471C62.821 22.0592 62.5674 22.4606 62.2931 22.7349L58.6331 19.075ZM60.4631 21.2716C58.6331 23.1016 58.6335 23.102 58.634 23.1025C58.6341 23.1026 58.6346 23.1031 58.6349 23.1034C58.6355 23.104 58.6361 23.1046 58.6367 23.1052C58.638 23.1064 58.6392 23.1077 58.6405 23.109C58.6431 23.1115 58.6458 23.1142 58.6485 23.1169C58.654 23.1223 58.6599 23.1281 58.6662 23.1342C58.6788 23.1464 58.693 23.1599 58.7087 23.1747C58.7401 23.2042 58.7779 23.2388 58.8224 23.278C58.9114 23.3566 59.027 23.4537 59.1721 23.5665C59.4623 23.7922 59.8693 24.08 60.4148 24.4073L63.0778 19.969C62.7067 19.7463 62.472 19.5759 62.3498 19.4808C62.2886 19.4332 62.2553 19.4043 62.2469 19.3969C62.2427 19.3932 62.2447 19.3948 62.2525 19.4022C62.2565 19.4058 62.2618 19.4109 62.2686 19.4175C62.272 19.4208 62.2757 19.4244 62.2798 19.4284C62.2818 19.4304 62.284 19.4325 62.2862 19.4347C62.2873 19.4358 62.2884 19.437 62.2895 19.4381C62.2901 19.4387 62.2907 19.4393 62.2913 19.4398C62.2916 19.4401 62.292 19.4406 62.2922 19.4407C62.2926 19.4412 62.2931 19.4416 60.4631 21.2716ZM59.9163 24.0181C60.3831 24.4849 60.9002 24.7704 61.1715 24.9184C61.5232 25.1102 61.6285 25.1589 61.7772 25.2581L64.6484 20.9514C64.2472 20.684 63.8026 20.4577 63.6501 20.3745C63.4173 20.2475 63.4761 20.258 63.5763 20.3582L59.9163 24.0181ZM61.7772 25.2581C62.5479 25.7718 63.5924 26.2965 64.905 26.559L65.9201 21.4836C65.3996 21.3795 64.9776 21.1709 64.6484 20.9514L61.7772 25.2581ZM64.905 26.559C65.2926 26.6366 65.5336 26.7192 66.1598 26.8758C66.6728 27.004 67.3793 27.1593 68.1623 27.1593L68.1623 21.9833C68.0288 21.9833 67.8187 21.9552 67.4151 21.8543C67.1247 21.7817 66.4492 21.5894 65.9201 21.4836L64.905 26.559ZM67.7369 27.124C69.3335 27.3901 70.864 27.1113 71.8875 26.9407L71.0365 21.8352C69.8603 22.0312 69.1909 22.119 68.5878 22.0185L67.7369 27.124ZM72.0439 26.9097C75.1739 26.1874 77.8549 24.0882 79.7651 21.5412L75.6243 18.4356C74.2349 20.2881 72.5164 21.4886 70.8801 21.8662L72.0439 26.9097ZM79.8481 21.4239C81.54 18.8861 82.6658 15.8286 82.6658 12.6558L77.4899 12.6558C77.4899 14.6158 76.7825 16.6911 75.5414 18.5528L79.8481 21.4239ZM82.6658 12.6558C82.6658 11.1184 82.4448 9.47013 81.7233 7.78667L76.9658 9.82559C77.3443 10.7086 77.4899 11.6267 77.4899 12.6558L82.6658 12.6558ZM81.6593 7.64875C81.4341 7.19826 81.0861 6.45245 80.7093 5.80645C80.3197 5.13853 79.7623 4.3229 78.9448 3.66889L75.7114 7.71064C75.8105 7.78989 75.9864 7.9825 76.2384 8.41447C76.5032 8.86837 76.7051 9.31411 77.0298 9.96351L81.6593 7.64875ZM79.1581 3.85978C77.9776 2.67926 76.7597 1.94178 75.5395 1.45373L73.6172 6.25949C74.2302 6.5047 74.8455 6.86712 75.4981 7.51975L79.1581 3.85978ZM75.7357 1.54185C75.2226 1.28529 74.2482 0.901995 73.2952 0.901995L73.2952 6.07796C73.2353 6.07796 73.192 6.07434 73.1687 6.07188C73.1446 6.06933 73.1313 6.0669 73.1299 6.06665C73.1292 6.06652 73.1509 6.07072 73.1931 6.08339C73.2337 6.09557 73.2794 6.11138 73.3245 6.12922C73.3704 6.14731 73.4037 6.16274 73.421 6.17137L75.7357 1.54185ZM74.4525 1.17522C73.8541 0.876011 73.2593 0.78926 72.9111 0.754438C72.5346 0.716787 72.1808 0.71868 72.012 0.71868L72.012 5.89465C72.1069 5.89465 72.1775 5.89478 72.2475 5.89662C72.3158 5.89842 72.3636 5.90148 72.396 5.90472C72.4303 5.90814 72.4266 5.90978 72.3951 5.90232C72.3778 5.89821 72.347 5.89017 72.3056 5.8759C72.2644 5.86169 72.2067 5.83922 72.1378 5.80474L74.4525 1.17522ZM72.012 0.71868L69.8122 0.71868L69.8122 5.89465L72.012 5.89465L72.012 0.71868ZM70.1332 0.738665C66.4458 0.277741 60.6669 1.43574 56.713 6.92733L60.9135 9.95167C63.5589 6.27748 67.3125 5.60233 69.4912 5.87466L70.1332 0.738665ZM59.4409 10.9502C62.175 10.2667 64.8974 9.92759 67.6124 9.92759L67.6124 4.75162C64.4613 4.75162 61.3175 5.14579 58.1856 5.92879L59.4409 10.9502ZM67.8982 9.91176C69.4549 9.7388 69.8768 9.77178 70.4045 9.87733L71.4196 4.80188C70.1142 4.5408 69.0696 4.57379 67.3266 4.76745L67.8982 9.91176Z" fill="black" mask="url(#path-2-outside-1)"/>
<path d="M65.9292 76.6248C63.3627 76.6248 60.9796 75.3416 59.6964 73.1418C59.1465 72.4086 59.5131 71.492 60.2464 70.942C60.9796 70.3921 61.8962 70.7587 62.4462 71.492C63.1794 72.7752 64.6459 73.5084 66.1125 73.5084C67.579 73.5084 69.0455 72.7752 69.7788 71.492C70.3287 70.7587 71.2453 70.5754 71.9786 70.942C72.7118 71.492 72.8951 72.4086 72.5285 73.1418C70.8787 75.3416 68.4956 76.6248 65.9292 76.6248Z" fill="#E5AB83"/>
<path d="M48.1494 60.8601L48.1494 67.2761C48.1494 69.8425 46.1329 71.859 43.5665 71.859C41.0001 71.859 38.9836 69.8425 38.9836 67.2761L38.9836 60.8601C39.167 58.477 41.1834 56.6438 43.5665 56.6438C45.9496 56.6438 47.7828 58.477 48.1494 60.8601Z" fill="black"/>
<path d="M92.8757 60.8601C92.6924 58.477 90.676 56.6438 88.2929 56.6438C85.9097 56.6438 83.8933 58.477 83.71 60.8601L83.71 67.2761C83.71 69.8425 85.7264 71.859 88.2929 71.859C90.8593 71.859 92.8757 69.8425 92.8757 67.2761L92.8757 60.8601Z" fill="black"/>
<path d="M65.9315 96.7893C59.3321 96.7893 53.466 93.4896 50.1664 87.8068C49.6164 87.0736 49.6164 85.9737 50.1664 85.2404C50.533 84.5072 51.4496 83.9572 52.3662 83.9572L79.6802 83.9572C80.5967 83.9572 81.33 84.5072 81.88 85.2404C82.2466 85.9737 82.2466 87.0736 81.88 87.8068C78.397 93.3063 72.5309 96.7893 65.9315 96.7893Z" fill="black"/>
<path d="M42.4661 61.0436L42.4661 62.6934C42.4661 63.2433 41.9162 63.7933 41.3663 63.7933C40.8163 63.7933 40.2664 63.2433 40.2664 62.6934L40.2664 61.0436C40.2664 60.4936 40.8163 59.9437 41.3663 59.9437C41.9162 59.9437 42.4661 60.4936 42.4661 61.0436ZM87.5618 61.0436C87.5618 60.4936 87.0118 59.9437 86.4619 59.9437C85.9119 59.9437 85.362 60.4936 85.362 61.0436L85.362 62.6934C85.362 63.2433 85.9119 63.7933 86.4619 63.7933C87.0118 63.7933 87.5618 63.2433 87.5618 62.6934L87.5618 61.0436Z" fill="#959DA3"/>
<path d="M74.9138 94.4056C72.5307 92.2058 69.2311 92.2058 65.7481 92.2058C62.2651 92.2058 58.9654 92.0225 56.5823 94.4056C59.332 95.8721 62.4484 96.7887 65.7481 96.7887C69.2311 96.7887 72.3474 95.8721 74.9138 94.4056Z" fill="#FF7DDA"/>
</g>
<defs>
<clipPath id="clip0">
<rect width="132" height="107" fill="white"/>
</clipPath>
</defs>
</svg>
