<svg width="360" height="668" viewBox="0 0 360 668" fill="none" xmlns="http://www.w3.org/2000/svg">
<g clip-path="url(#clip0)">
<rect width="360" height="668" fill="#F1F58F"/>
<path d="M75.1731 30.2728C74.5575 28.599 74.2776 26.8203 74.3494 25.0383C74.4213 23.2563 74.8434 21.5059 75.5917 19.8871C76.3401 18.2683 77.4 16.8127 78.7108 15.6035C80.0217 14.3944 81.558 13.4553 83.2318 12.8398C90.2714 10.2512 98.0766 13.859 100.665 20.8988" stroke="#B686B8" stroke-width="2.02192" stroke-miterlimit="10"/>
<path d="M78.0512 29.2146C77.0857 26.5891 77.1994 23.6888 78.3674 21.1518C79.5353 18.6147 81.6617 16.6488 84.2788 15.6864C86.896 14.724 89.7894 14.8441 92.3227 16.0201C94.856 17.1961 96.8216 19.3318 97.7871 21.9573" stroke="#E16338" stroke-width="2.02192" stroke-miterlimit="10"/>
<path d="M80.8029 28.2027C80.1088 26.3154 80.193 24.2296 81.0368 22.4043C81.8806 20.579 83.415 19.1636 85.3023 18.4696C87.1897 17.7756 89.2755 17.8597 91.1008 18.7036C92.9261 19.5474 94.3414 21.0817 95.0355 22.9691" stroke="#E89670" stroke-width="2.02192" stroke-miterlimit="10"/>
<path d="M-2.84824e-05 126.31C0.41053 124.651 1.14129 123.09 2.15051 121.716C3.15973 120.342 4.42766 119.182 5.88188 118.302C7.3361 117.422 8.94814 116.839 10.6259 116.587C12.3037 116.334 14.0144 116.417 15.6603 116.831C22.5827 118.571 26.7945 125.636 25.0674 132.611" stroke="#B686B8" stroke-width="2.02192" stroke-miterlimit="10"/>
<path d="M2.8299 127.021C3.47401 124.42 5.11408 122.182 7.38931 120.8C9.66454 119.418 12.3885 119.005 14.9621 119.652C17.5356 120.299 19.7479 121.952 21.1122 124.249C22.4765 126.546 22.8811 129.298 22.237 131.9" stroke="#E16338" stroke-width="2.02192" stroke-miterlimit="10"/>
<path d="M5.5359 127.701C5.99893 125.831 7.18025 124.223 8.81999 123.231C10.4597 122.238 12.4236 121.943 14.2795 122.409C16.1354 122.876 17.7314 124.066 18.7163 125.718C19.7012 127.371 19.9944 129.349 19.5314 131.219" stroke="#E89670" stroke-width="2.02192" stroke-miterlimit="10"/>
<path d="M57.0001 290.001C57.4063 288.265 58.1506 286.625 59.1904 285.176C60.2302 283.727 61.5453 282.497 63.0604 281.557C64.5756 280.616 66.2612 279.983 68.021 279.694C69.7809 279.405 71.5804 279.465 73.3169 279.871C80.6201 281.58 85.1557 288.885 83.4471 296.188" stroke="#B686B8" stroke-width="2.02192" stroke-miterlimit="10"/>
<path d="M59.9859 290.7C60.6232 287.976 62.3129 285.616 64.6834 284.139C67.0539 282.662 69.911 282.189 72.6262 282.825C75.3414 283.46 77.6922 285.151 79.1615 287.526C80.6308 289.901 81.0982 292.766 80.461 295.49" stroke="#E16338" stroke-width="2.02192" stroke-miterlimit="10"/>
<path d="M62.8409 291.368C63.299 289.41 64.5161 287.714 66.2246 286.653C67.9331 285.592 69.9929 285.254 71.9509 285.712C73.909 286.17 75.6049 287.387 76.6655 289.096C77.7261 290.804 78.0647 292.864 77.6066 294.822" stroke="#E89670" stroke-width="2.02192" stroke-miterlimit="10"/>
<path d="M331.803 332.309C331.172 330.64 330.876 328.864 330.932 327.082C330.987 325.299 331.393 323.545 332.127 321.919C332.86 320.294 333.907 318.829 335.207 317.608C336.507 316.387 338.034 315.434 339.703 314.803C346.718 312.15 354.556 315.687 357.209 322.703" stroke="#B686B8" stroke-width="2.02192" stroke-miterlimit="10"/>
<path d="M334.671 331.224C333.682 328.607 333.769 325.706 334.914 323.159C336.059 320.611 338.167 318.626 340.775 317.64C343.384 316.654 346.278 316.747 348.822 317.9C351.366 319.053 353.351 321.171 354.34 323.788" stroke="#E16338" stroke-width="2.02192" stroke-miterlimit="10"/>
<path d="M337.413 330.187C336.702 328.306 336.767 326.22 337.595 324.387C338.422 322.554 339.943 321.125 341.824 320.414C343.705 319.702 345.792 319.768 347.624 320.595C349.457 321.422 350.887 322.943 351.598 324.824" stroke="#E89670" stroke-width="2.02192" stroke-miterlimit="10"/>
<path d="M298.055 75.802C298.432 74.0587 299.148 72.4067 300.163 70.9403C301.178 69.4738 302.472 68.2217 303.971 67.2553C305.47 66.289 307.145 65.6274 308.899 65.3083C310.654 64.9891 312.454 65.0188 314.197 65.3955C321.529 66.9794 326.188 74.2061 324.604 81.5377" stroke="#B686B8" stroke-width="2.02192" stroke-miterlimit="10"/>
<path d="M301.053 76.4497C301.644 73.7154 303.293 71.3269 305.638 69.8099C307.983 68.2928 310.832 67.7713 313.557 68.3602C316.283 68.949 318.662 70.6 320.172 72.9498C321.681 75.2996 322.197 78.1559 321.607 80.8902" stroke="#E16338" stroke-width="2.02192" stroke-miterlimit="10"/>
<path d="M303.919 77.0688C304.343 75.1032 305.531 73.3868 307.221 72.2972C308.912 71.2077 310.965 70.8341 312.931 71.2587C314.897 71.6834 316.613 72.8715 317.703 74.5616C318.792 76.2518 319.166 78.3055 318.741 80.2711" stroke="#E89670" stroke-width="2.02192" stroke-miterlimit="10"/>
<path d="M137.75 128.295C138.035 126.534 138.664 124.847 139.601 123.33C140.539 121.812 141.765 120.494 143.212 119.451C144.658 118.408 146.296 117.66 148.032 117.25C149.767 116.84 151.567 116.775 153.327 117.061C160.731 118.26 165.761 125.234 164.561 132.638" stroke="#B686B8" stroke-width="2.02192" stroke-miterlimit="10"/>
<path d="M140.777 128.785C141.224 126.024 142.747 123.552 145.01 121.915C147.272 120.278 150.09 119.609 152.842 120.055C155.595 120.5 158.057 122.025 159.687 124.293C161.317 126.561 161.982 129.387 161.534 132.148" stroke="#E16338" stroke-width="2.02192" stroke-miterlimit="10"/>
<path d="M143.671 129.254C143.993 127.269 145.09 125.493 146.721 124.317C148.352 123.14 150.383 122.66 152.368 122.982C154.353 123.304 156.129 124.4 157.306 126.032C158.482 127.663 158.962 129.694 158.64 131.679" stroke="#E89670" stroke-width="2.02192" stroke-miterlimit="10"/>
<path d="M254.095 199.504C253.838 197.739 253.931 195.941 254.369 194.212C254.807 192.483 255.581 190.857 256.648 189.428C257.714 187.998 259.051 186.793 260.584 185.88C262.116 184.967 263.813 184.366 265.577 184.109C273 183.029 279.892 188.169 280.973 195.592" stroke="#B686B8" stroke-width="2.02192" stroke-miterlimit="10"/>
<path d="M257.129 199.062C256.726 196.294 257.436 193.479 259.102 191.238C260.769 188.997 263.255 187.512 266.014 187.11C268.774 186.708 271.58 187.423 273.816 189.096C276.052 190.77 277.535 193.265 277.938 196.034" stroke="#E16338" stroke-width="2.02192" stroke-miterlimit="10"/>
<path d="M260.031 198.64C259.741 196.65 260.254 194.626 261.456 193.014C262.658 191.402 264.452 190.334 266.442 190.044C268.432 189.755 270.455 190.268 272.067 191.47C273.679 192.672 274.747 194.466 275.037 196.456" stroke="#E89670" stroke-width="2.02192" stroke-miterlimit="10"/>
<path d="M63.1731 448.273C62.5575 446.599 62.2776 444.82 62.3494 443.038C62.4213 441.256 62.8434 439.506 63.5917 437.887C64.3401 436.268 65.4 434.813 66.7108 433.604C68.0217 432.394 69.558 431.455 71.2318 430.84C78.2714 428.251 86.0766 431.859 88.6653 438.899" stroke="#B686B8" stroke-width="2.02192" stroke-miterlimit="10"/>
<path d="M66.0512 447.215C65.0857 444.589 65.1994 441.689 66.3674 439.152C67.5353 436.615 69.6617 434.649 72.2788 433.686C74.896 432.724 77.7894 432.844 80.3227 434.02C82.856 435.196 84.8216 437.332 85.7871 439.957" stroke="#E16338" stroke-width="2.02192" stroke-miterlimit="10"/>
<path d="M68.8029 446.203C68.1088 444.315 68.193 442.23 69.0368 440.404C69.8806 438.579 71.415 437.164 73.3023 436.47C75.1897 435.776 77.2755 435.86 79.1008 436.704C80.9261 437.547 82.3414 439.082 83.0355 440.969" stroke="#E89670" stroke-width="2.02192" stroke-miterlimit="10"/>
<path d="M-12 544.31C-11.5895 542.651 -10.8587 541.09 -9.84949 539.716C-8.84027 538.343 -7.57234 537.182 -6.11812 536.302C-4.6639 535.422 -3.05186 534.839 -1.37406 534.587C0.303738 534.334 2.01444 534.417 3.66035 534.831C10.5827 536.571 14.7945 543.636 13.0674 550.611" stroke="#B686B8" stroke-width="2.02192" stroke-miterlimit="10"/>
<path d="M-9.1701 545.021C-8.52599 542.42 -6.88592 540.182 -4.61069 538.8C-2.33546 537.418 0.388543 537.005 2.96208 537.652C5.53562 538.299 7.74788 539.952 9.11218 542.249C10.4765 544.546 10.8811 547.298 10.237 549.9" stroke="#E16338" stroke-width="2.02192" stroke-miterlimit="10"/>
<path d="M-6.4641 545.701C-6.00107 543.831 -4.81975 542.223 -3.18001 541.231C-1.54027 540.238 0.423564 539.943 2.27948 540.41C4.1354 540.876 5.73136 542.066 6.71629 543.719C7.70121 545.371 7.99441 547.35 7.53139 549.22" stroke="#E89670" stroke-width="2.02192" stroke-miterlimit="10"/>
<path d="M286.055 493.802C286.432 492.059 287.148 490.407 288.163 488.94C289.178 487.474 290.472 486.222 291.971 485.255C293.47 484.289 295.145 483.627 296.899 483.308C298.654 482.989 300.454 483.019 302.197 483.396C309.529 484.979 314.188 492.206 312.604 499.538" stroke="#B686B8" stroke-width="2.02192" stroke-miterlimit="10"/>
<path d="M289.053 494.45C289.644 491.715 291.293 489.327 293.638 487.81C295.983 486.293 298.832 485.771 301.557 486.36C304.283 486.949 306.662 488.6 308.172 490.95C309.681 493.3 310.197 496.156 309.607 498.89" stroke="#E16338" stroke-width="2.02192" stroke-miterlimit="10"/>
<path d="M291.919 495.069C292.343 493.103 293.531 491.387 295.221 490.297C296.912 489.208 298.965 488.834 300.931 489.259C302.897 489.684 304.613 490.872 305.703 492.562C306.792 494.252 307.166 496.306 306.741 498.271" stroke="#E89670" stroke-width="2.02192" stroke-miterlimit="10"/>
<path d="M242.095 617.504C241.838 615.739 241.931 613.941 242.369 612.212C242.807 610.483 243.581 608.857 244.648 607.428C245.714 605.998 247.051 604.793 248.584 603.88C250.116 602.967 251.813 602.366 253.577 602.109C261 601.029 267.892 606.169 268.973 613.592" stroke="#B686B8" stroke-width="2.02192" stroke-miterlimit="10"/>
<path d="M245.129 617.062C244.726 614.294 245.436 611.479 247.102 609.238C248.769 606.996 251.255 605.512 254.014 605.11C256.774 604.708 259.58 605.423 261.816 607.096C264.052 608.77 265.535 611.265 265.938 614.033" stroke="#E16338" stroke-width="2.02192" stroke-miterlimit="10"/>
<path d="M248.031 616.64C247.741 614.65 248.254 612.626 249.456 611.014C250.658 609.402 252.452 608.334 254.442 608.044C256.432 607.755 258.455 608.268 260.067 609.47C261.679 610.672 262.747 612.466 263.037 614.456" stroke="#E89670" stroke-width="2.02192" stroke-miterlimit="10"/>
</g>
<defs>
<clipPath id="clip0">
<rect width="360" height="668" fill="white"/>
</clipPath>
</defs>
</svg>
