<svg width="682" height="255" viewBox="0 0 682 255" fill="none" xmlns="http://www.w3.org/2000/svg">
<g filter="url(#filter0_d)">
<rect x="4" y="4" width="664" height="237" fill="white"/>
<path d="M147.5 127.651V81.0469H158.211L159.339 89.7852C161.03 86.7785 163.317 84.3982 166.198 82.6443C169.142 80.8277 172.587 79.9194 176.533 79.9194V92.604H173.151C170.52 92.604 168.171 93.0111 166.104 93.8254C164.037 94.6398 162.408 96.0491 161.218 98.0536C160.091 100.058 159.527 102.846 159.527 106.416V127.651H147.5Z" fill="black"/>
<path d="M204.681 127.651C199.983 127.651 195.818 126.649 192.185 124.644C188.552 122.64 185.701 119.821 183.634 116.188C181.567 112.555 180.534 108.358 180.534 103.597C180.534 98.774 181.536 94.4832 183.54 90.7248C185.608 86.9665 188.426 84.0537 191.997 81.9866C195.63 79.8569 199.889 78.792 204.775 78.792C209.348 78.792 213.388 79.7942 216.896 81.7987C220.404 83.8032 223.129 86.5593 225.07 90.0671C227.075 93.5123 228.077 97.3647 228.077 101.624C228.077 102.313 228.046 103.034 227.983 103.785C227.983 104.537 227.952 105.32 227.889 106.134H192.467C192.717 109.767 193.97 112.617 196.225 114.685C198.543 116.752 201.33 117.785 204.587 117.785C207.03 117.785 209.066 117.253 210.695 116.188C212.386 115.06 213.639 113.62 214.453 111.866H226.668C225.791 114.81 224.319 117.503 222.252 119.946C220.247 122.327 217.742 124.206 214.735 125.584C211.791 126.962 208.44 127.651 204.681 127.651Z" fill="#11A858"/>
<rect x="232.077" y="91.6509" width="16" height="12" fill="black"/>
<path d="M259.594 73.812C257.402 73.812 255.585 73.1543 254.144 71.8389C252.766 70.5235 252.077 68.8635 252.077 66.859C252.077 64.8546 252.766 63.2259 254.144 61.9731C255.585 60.6577 257.402 60 259.594 60C261.786 60 263.572 60.6577 264.95 61.9731C266.39 63.2259 267.111 64.8546 267.111 66.859C267.111 68.8635 266.39 70.5235 264.95 71.8389C263.572 73.1543 261.786 73.812 259.594 73.812ZM253.581 127.651V81.0469H265.607V127.651H253.581Z" fill="black"/>
<path d="M295.258 127.651C290.372 127.651 286.457 126.461 283.513 124.08C280.569 121.7 279.097 117.472 279.097 111.396V91.1006H271.11V81.0469H279.097L280.506 68.5503H291.124V81.0469H303.714V91.1006H291.124V111.49C291.124 113.745 291.594 115.311 292.533 116.188C293.535 117.002 295.227 117.409 297.607 117.409H303.432V127.651H295.258Z" fill="black"/>
<path d="M331.862 127.651C327.164 127.651 322.998 126.649 319.365 124.644C315.732 122.64 312.882 119.821 310.815 116.188C308.748 112.555 307.714 108.358 307.714 103.597C307.714 98.774 308.717 94.4832 310.721 90.7248C312.788 86.9665 315.607 84.0537 319.177 81.9866C322.811 79.8569 327.07 78.792 331.956 78.792C336.529 78.792 340.569 79.7942 344.077 81.7987C347.585 83.8032 350.309 86.5593 352.251 90.0671C354.256 93.5123 355.258 97.3647 355.258 101.624C355.258 102.313 355.227 103.034 355.164 103.785C355.164 104.537 355.133 105.32 355.07 106.134H319.647C319.898 109.767 321.151 112.617 323.406 114.685C325.723 116.752 328.511 117.785 331.768 117.785C334.211 117.785 336.247 117.253 337.875 116.188C339.567 115.06 340.819 113.62 341.634 111.866H353.848C352.972 114.81 351.499 117.503 349.432 119.946C347.428 122.327 344.922 124.206 341.916 125.584C338.972 126.962 335.62 127.651 331.862 127.651Z" fill="#F24D1D"/>
<path d="M359.258 127.651V81.0469H369.969L371.097 89.7852C372.788 86.7785 375.074 84.3982 377.956 82.6443C380.9 80.8277 384.345 79.9194 388.291 79.9194V92.604H384.909C382.278 92.604 379.929 93.0111 377.862 93.8254C375.795 94.6398 374.166 96.0491 372.976 98.0536C371.848 100.058 371.285 102.846 371.285 106.416V127.651H359.258Z" fill="black"/>
<path d="M409.768 127.651C405.759 127.651 402.47 127.025 399.902 125.772C397.334 124.456 395.423 122.734 394.171 120.604C392.918 118.474 392.292 116.125 392.292 113.557C392.292 109.235 393.983 105.727 397.365 103.034C400.748 100.34 405.822 98.9933 412.587 98.9933H424.426V97.8658C424.426 94.6711 423.517 92.3222 421.701 90.8188C419.884 89.3155 417.629 88.5638 414.936 88.5638C412.493 88.5638 410.363 89.1589 408.546 90.349C406.73 91.4765 405.602 93.1678 405.164 95.4228H393.419C393.732 92.0403 394.86 89.0962 396.802 86.5906C398.806 84.085 401.374 82.1745 404.506 80.8591C407.638 79.481 411.146 78.792 415.03 78.792C421.67 78.792 426.9 80.4519 430.721 83.7718C434.542 87.0917 436.452 91.7897 436.452 97.8658V126.523H426.211L425.083 119.007C423.705 121.512 421.763 123.579 419.258 125.208C416.815 126.837 413.652 127.651 409.768 127.651Z" fill="#0B80BD"/>
<path d="M464.6 127.651C459.714 127.651 455.799 126.461 452.855 124.08C449.911 121.7 448.439 117.472 448.439 111.396V91.1006H440.453V81.0469H448.439L449.849 68.5503H460.466V81.0469H473.057V91.1006H460.466V111.49C460.466 113.745 460.936 115.311 461.875 116.188C462.878 117.002 464.569 117.409 466.949 117.409H472.775V127.651H464.6Z" fill="black"/>
<path d="M501.204 127.651C496.506 127.651 492.34 126.649 488.707 124.644C485.074 122.64 482.224 119.821 480.157 116.188C478.09 112.555 477.056 108.358 477.056 103.597C477.056 98.774 478.058 94.4832 480.063 90.7248C482.13 86.9665 484.949 84.0537 488.519 81.9866C492.152 79.8569 496.412 78.792 501.298 78.792C505.87 78.792 509.911 79.7942 513.418 81.7987C516.926 83.8032 519.651 86.5593 521.593 90.0671C523.597 93.5123 524.6 97.3647 524.6 101.624C524.6 102.313 524.568 103.034 524.506 103.785C524.506 104.537 524.474 105.32 524.412 106.134H488.989C489.24 109.767 490.492 112.617 492.747 114.685C495.065 116.752 497.853 117.785 501.11 117.785C503.553 117.785 505.589 117.253 507.217 116.188C508.908 115.06 510.161 113.62 510.976 111.866H523.19C522.313 114.81 520.841 117.503 518.774 119.946C516.77 122.327 514.264 124.206 511.257 125.584C508.313 126.962 504.962 127.651 501.204 127.651Z" fill="#FF8577"/>
<path d="M223.672 209V208.76L224.608 208.472C225.216 208.264 225.52 207.856 225.52 207.248V195.632L223.576 195.896V195.584C224.52 195.392 225.424 195.12 226.288 194.768C227.168 194.416 227.992 194.008 228.76 193.544L229.072 193.76L228.976 197.192V207.248C228.976 207.872 229.28 208.272 229.888 208.448L230.872 208.76V209H223.672ZM236.023 209.36C235.239 209.36 234.535 209.264 233.911 209.072C233.287 208.896 232.711 208.672 232.183 208.4L232.207 205.544H232.447L233.263 206.984C233.615 207.624 233.999 208.104 234.415 208.424C234.847 208.728 235.391 208.88 236.047 208.88C236.815 208.88 237.431 208.712 237.895 208.376C238.375 208.024 238.615 207.56 238.615 206.984C238.615 206.456 238.447 206.024 238.111 205.688C237.775 205.352 237.151 205.048 236.239 204.776L235.231 204.464C234.255 204.176 233.487 203.728 232.927 203.12C232.367 202.512 232.087 201.768 232.087 200.888C232.087 199.832 232.503 198.936 233.335 198.2C234.167 197.464 235.359 197.096 236.911 197.096C237.535 197.096 238.119 197.168 238.663 197.312C239.223 197.44 239.759 197.64 240.271 197.912L240.127 200.504H239.887L239.047 199.016C238.743 198.488 238.439 198.12 238.135 197.912C237.847 197.688 237.407 197.576 236.815 197.576C236.271 197.576 235.759 197.728 235.279 198.032C234.799 198.336 234.559 198.768 234.559 199.328C234.559 199.872 234.759 200.304 235.159 200.624C235.575 200.944 236.183 201.24 236.983 201.512L238.063 201.824C239.215 202.176 240.039 202.664 240.535 203.288C241.031 203.896 241.279 204.632 241.279 205.496C241.279 206.664 240.815 207.6 239.887 208.304C238.975 209.008 237.687 209.36 236.023 209.36ZM246.884 209.36C245.86 209.36 245.06 209.104 244.484 208.592C243.924 208.08 243.644 207.264 243.644 206.144V197.936H241.988V197.696L242.564 197.6C243.06 197.488 243.484 197.328 243.836 197.12C244.204 196.912 244.564 196.632 244.916 196.28L246.884 194.096H247.124L247.052 197.456H249.74V197.936H247.028V206.576C247.028 207.136 247.148 207.56 247.388 207.848C247.644 208.136 247.964 208.28 248.348 208.28C248.684 208.28 248.98 208.2 249.236 208.04C249.492 207.864 249.748 207.632 250.004 207.344L250.244 207.584C249.924 208.128 249.484 208.56 248.924 208.88C248.364 209.2 247.684 209.36 246.884 209.36ZM256.702 203.24V202.592H262.75V203.24H256.702ZM275.034 209.36C273.962 209.36 273.082 209.24 272.394 209C271.722 208.76 271.058 208.48 270.402 208.16L270.666 205.04H270.906L271.962 206.984C272.666 208.248 273.642 208.88 274.89 208.88C275.626 208.88 276.218 208.576 276.666 207.968C277.13 207.344 277.362 206.304 277.362 204.848C277.362 203.584 277.17 202.68 276.786 202.136C276.402 201.576 275.746 201.296 274.818 201.296H273.378V200.816H274.65C275.498 200.816 276.106 200.56 276.474 200.048C276.858 199.536 277.05 198.648 277.05 197.384C277.05 196.152 276.866 195.28 276.498 194.768C276.13 194.24 275.642 193.976 275.034 193.976C274.426 193.976 273.914 194.152 273.498 194.504C273.098 194.856 272.77 195.272 272.514 195.752L271.434 197.768L271.194 197.744L271.434 194.216C271.946 193.992 272.514 193.808 273.138 193.664C273.778 193.504 274.49 193.424 275.273 193.424C276.954 193.424 278.226 193.792 279.09 194.528C279.97 195.248 280.41 196.152 280.41 197.24C280.41 198.024 280.074 198.776 279.402 199.496C278.73 200.2 277.674 200.688 276.234 200.96C277.866 201.104 279.05 201.544 279.786 202.28C280.522 203.016 280.89 203.904 280.89 204.944C280.89 205.776 280.65 206.528 280.17 207.2C279.706 207.872 279.034 208.4 278.154 208.784C277.29 209.168 276.25 209.36 275.034 209.36ZM282.191 209V208.76L282.551 208.664C282.871 208.568 283.087 208.424 283.199 208.232C283.327 208.04 283.391 207.792 283.391 207.488V199.976C283.391 199.624 283.327 199.368 283.199 199.208C283.087 199.032 282.871 198.912 282.551 198.848L282.191 198.752V198.512L286.319 197.12L286.559 197.36L286.775 199.424V199.616C286.999 199.168 287.287 198.76 287.639 198.392C288.007 198.008 288.407 197.696 288.839 197.456C289.287 197.216 289.727 197.096 290.159 197.096C290.767 197.096 291.231 197.264 291.551 197.6C291.871 197.936 292.031 198.36 292.031 198.872C292.031 199.416 291.871 199.84 291.551 200.144C291.247 200.432 290.879 200.576 290.447 200.576C289.775 200.576 289.183 200.24 288.671 199.568L288.623 199.52C288.463 199.296 288.279 199.176 288.071 199.16C287.863 199.128 287.671 199.224 287.495 199.448C287.335 199.592 287.199 199.768 287.087 199.976C286.991 200.168 286.895 200.392 286.799 200.648V207.344C286.799 207.984 287.079 208.384 287.639 208.544L288.407 208.76V209H282.191ZM297.498 209.36C296.554 209.36 295.706 209.152 294.954 208.736C294.202 208.304 293.602 207.648 293.154 206.768C292.722 205.872 292.506 204.728 292.506 203.336C292.506 201.928 292.754 200.768 293.25 199.856C293.746 198.928 294.402 198.24 295.218 197.792C296.034 197.328 296.922 197.096 297.882 197.096C298.442 197.096 298.978 197.152 299.49 197.264C300.002 197.376 300.458 197.544 300.858 197.768V194.648C300.858 194.312 300.802 194.064 300.69 193.904C300.594 193.744 300.378 193.632 300.042 193.568L299.586 193.472V193.232L303.954 192.176L304.218 192.392L304.122 195.752V207.488C304.122 207.808 304.178 208.072 304.29 208.28C304.402 208.472 304.61 208.608 304.914 208.688L305.13 208.76V209L301.026 209.264L300.81 208.4C300.378 208.688 299.882 208.92 299.322 209.096C298.778 209.272 298.17 209.36 297.498 209.36ZM298.89 208.472C299.562 208.472 300.178 208.272 300.738 207.872V198.344C300.146 197.96 299.538 197.768 298.914 197.768C298.146 197.768 297.49 198.216 296.946 199.112C296.402 199.992 296.13 201.384 296.13 203.288C296.13 205.192 296.386 206.536 296.898 207.32C297.41 208.088 298.074 208.472 298.89 208.472ZM318.978 209.432C318.002 209.432 317.058 209.256 316.146 208.904C315.25 208.552 314.442 208.032 313.722 207.344C313.018 206.64 312.458 205.768 312.042 204.728C311.626 203.688 311.418 202.472 311.418 201.08C311.418 199.704 311.626 198.496 312.042 197.456C312.458 196.416 313.026 195.552 313.746 194.864C314.466 194.16 315.274 193.632 316.17 193.28C317.082 192.912 318.018 192.728 318.978 192.728C319.954 192.728 320.89 192.904 321.786 193.256C322.698 193.592 323.506 194.112 324.21 194.816C324.93 195.504 325.498 196.376 325.914 197.432C326.33 198.472 326.538 199.688 326.538 201.08C326.538 202.44 326.33 203.648 325.914 204.704C325.498 205.744 324.93 206.616 324.21 207.32C323.506 208.008 322.698 208.536 321.786 208.904C320.89 209.256 319.954 209.432 318.978 209.432ZM318.978 208.928C319.858 208.928 320.57 208.696 321.114 208.232C321.658 207.752 322.05 206.944 322.29 205.808C322.546 204.656 322.674 203.08 322.674 201.08C322.674 199.064 322.546 197.488 322.29 196.352C322.05 195.2 321.658 194.392 321.114 193.928C320.57 193.448 319.858 193.208 318.978 193.208C318.114 193.208 317.41 193.448 316.866 193.928C316.322 194.392 315.922 195.2 315.666 196.352C315.426 197.488 315.306 199.064 315.306 201.08C315.306 203.08 315.426 204.656 315.666 205.808C315.922 206.944 316.322 207.752 316.866 208.232C317.41 208.696 318.114 208.928 318.978 208.928ZM333.448 209.36C332.36 209.36 331.368 209.128 330.472 208.664C329.592 208.184 328.888 207.496 328.36 206.6C327.848 205.688 327.592 204.576 327.592 203.264C327.592 201.968 327.872 200.864 328.432 199.952C329.008 199.024 329.768 198.32 330.712 197.84C331.672 197.344 332.72 197.096 333.856 197.096C334.784 197.096 335.568 197.248 336.208 197.552C336.848 197.856 337.336 198.256 337.672 198.752C338.008 199.232 338.176 199.736 338.176 200.264C338.176 200.712 338.04 201.064 337.768 201.32C337.496 201.56 337.144 201.68 336.712 201.68C336.248 201.68 335.872 201.512 335.584 201.176C335.296 200.84 335.128 200.4 335.08 199.856C335.064 199.504 335.072 199.208 335.104 198.968C335.136 198.712 335.136 198.456 335.104 198.2C335.04 197.928 334.936 197.752 334.792 197.672C334.664 197.576 334.48 197.528 334.24 197.528C333.264 197.528 332.504 197.952 331.96 198.8C331.432 199.648 331.168 201 331.168 202.856C331.168 204.472 331.464 205.712 332.056 206.576C332.664 207.424 333.592 207.848 334.84 207.848C335.592 207.848 336.2 207.712 336.664 207.44C337.128 207.168 337.576 206.76 338.008 206.216L338.248 206.408C337.848 207.352 337.232 208.08 336.4 208.592C335.568 209.104 334.584 209.36 333.448 209.36ZM343.774 209.36C342.75 209.36 341.95 209.104 341.374 208.592C340.814 208.08 340.534 207.264 340.534 206.144V197.936H338.878V197.696L339.454 197.6C339.95 197.488 340.374 197.328 340.726 197.12C341.094 196.912 341.454 196.632 341.806 196.28L343.774 194.096H344.014L343.942 197.456H346.63V197.936H343.918V206.576C343.918 207.136 344.038 207.56 344.278 207.848C344.534 208.136 344.854 208.28 345.238 208.28C345.574 208.28 345.87 208.2 346.126 208.04C346.382 207.864 346.638 207.632 346.894 207.344L347.134 207.584C346.814 208.128 346.374 208.56 345.814 208.88C345.254 209.2 344.574 209.36 343.774 209.36ZM353.888 209.36C352.672 209.36 351.616 209.112 350.72 208.616C349.824 208.104 349.128 207.384 348.632 206.456C348.152 205.528 347.912 204.44 347.912 203.192C347.912 201.944 348.168 200.864 348.68 199.952C349.208 199.04 349.92 198.336 350.816 197.84C351.728 197.344 352.752 197.096 353.888 197.096C355.024 197.096 356.04 197.344 356.936 197.84C357.832 198.32 358.536 199.016 359.048 199.928C359.576 200.84 359.84 201.928 359.84 203.192C359.84 204.456 359.592 205.552 359.096 206.48C358.616 207.392 357.928 208.104 357.032 208.616C356.152 209.112 355.104 209.36 353.888 209.36ZM353.888 208.88C354.448 208.88 354.896 208.72 355.232 208.4C355.568 208.08 355.808 207.512 355.952 206.696C356.112 205.88 356.192 204.728 356.192 203.24C356.192 201.736 356.112 200.576 355.952 199.76C355.808 198.944 355.568 198.376 355.232 198.056C354.896 197.736 354.448 197.576 353.888 197.576C353.328 197.576 352.872 197.736 352.52 198.056C352.184 198.376 351.936 198.944 351.776 199.76C351.632 200.576 351.56 201.736 351.56 203.24C351.56 204.728 351.632 205.88 351.776 206.696C351.936 207.512 352.184 208.08 352.52 208.4C352.872 208.72 353.328 208.88 353.888 208.88ZM364.904 209.312L360.848 209V208.76L361.088 208.712C361.712 208.568 362.024 208.168 362.024 207.512V194.672C362.024 194.336 361.968 194.08 361.856 193.904C361.76 193.728 361.552 193.608 361.232 193.544L360.896 193.448V193.208L365.168 192.176L365.456 192.392L365.36 195.776V198.2C365.888 197.832 366.464 197.56 367.088 197.384C367.712 197.192 368.344 197.096 368.984 197.096C369.896 197.096 370.704 197.312 371.408 197.744C372.112 198.16 372.664 198.816 373.064 199.712C373.48 200.592 373.688 201.728 373.688 203.12C373.688 204.512 373.456 205.672 372.992 206.6C372.544 207.512 371.936 208.2 371.168 208.664C370.416 209.128 369.584 209.36 368.672 209.36C368.08 209.36 367.48 209.28 366.872 209.12C366.28 208.96 365.752 208.736 365.288 208.448L364.904 209.312ZM367.472 208.544C367.984 208.544 368.432 208.384 368.816 208.064C369.2 207.744 369.504 207.2 369.728 206.432C369.952 205.648 370.064 204.576 370.064 203.216C370.064 201.856 369.96 200.808 369.752 200.072C369.544 199.336 369.248 198.824 368.864 198.536C368.496 198.248 368.048 198.104 367.52 198.104C366.768 198.104 366.072 198.312 365.432 198.728V207.944C365.736 208.136 366.048 208.288 366.368 208.4C366.688 208.496 367.056 208.544 367.472 208.544ZM380.91 197.096C381.95 197.096 382.838 197.312 383.574 197.744C384.31 198.16 384.87 198.736 385.254 199.472C385.654 200.192 385.854 201.016 385.854 201.944C385.854 202.12 385.846 202.304 385.83 202.496C385.814 202.672 385.782 202.832 385.734 202.976H378.582C378.598 204.704 378.902 205.952 379.494 206.72C380.102 207.472 380.998 207.848 382.182 207.848C382.982 207.848 383.63 207.72 384.126 207.464C384.622 207.208 385.086 206.832 385.518 206.336L385.758 206.552C385.262 207.432 384.598 208.12 383.766 208.616C382.95 209.112 381.966 209.36 380.814 209.36C379.678 209.36 378.67 209.12 377.79 208.64C376.91 208.144 376.222 207.44 375.726 206.528C375.23 205.616 374.982 204.528 374.982 203.264C374.982 201.952 375.27 200.84 375.846 199.928C376.422 199 377.158 198.296 378.054 197.816C378.966 197.336 379.918 197.096 380.91 197.096ZM380.838 197.576C380.374 197.576 379.974 197.72 379.638 198.008C379.318 198.28 379.062 198.776 378.87 199.496C378.694 200.2 378.598 201.2 378.582 202.496H382.686C382.846 200.752 382.782 199.496 382.494 198.728C382.206 197.96 381.654 197.576 380.838 197.576ZM387.05 209V208.76L387.41 208.664C387.73 208.568 387.946 208.424 388.058 208.232C388.186 208.04 388.25 207.792 388.25 207.488V199.976C388.25 199.624 388.186 199.368 388.058 199.208C387.946 199.032 387.73 198.912 387.41 198.848L387.05 198.752V198.512L391.178 197.12L391.418 197.36L391.634 199.424V199.616C391.858 199.168 392.146 198.76 392.498 198.392C392.866 198.008 393.266 197.696 393.698 197.456C394.146 197.216 394.586 197.096 395.018 197.096C395.626 197.096 396.09 197.264 396.41 197.6C396.73 197.936 396.89 198.36 396.89 198.872C396.89 199.416 396.73 199.84 396.41 200.144C396.106 200.432 395.738 200.576 395.306 200.576C394.634 200.576 394.042 200.24 393.53 199.568L393.482 199.52C393.322 199.296 393.138 199.176 392.93 199.16C392.722 199.128 392.53 199.224 392.354 199.448C392.194 199.592 392.058 199.768 391.946 199.976C391.85 200.168 391.754 200.392 391.658 200.648V207.344C391.658 207.984 391.938 208.384 392.498 208.544L393.266 208.76V209H387.05ZM404.047 197.816L404.215 194.408C404.695 194.136 405.287 193.904 405.991 193.712C406.711 193.52 407.519 193.424 408.415 193.424C409.695 193.424 410.727 193.608 411.511 193.976C412.295 194.328 412.871 194.816 413.239 195.44C413.607 196.064 413.791 196.768 413.791 197.552C413.791 198.656 413.255 199.736 412.183 200.792C411.111 201.832 409.647 202.984 407.791 204.248C407.439 204.504 407.023 204.816 406.543 205.184C406.063 205.552 405.615 205.912 405.199 206.264H414.199V209H403.639V206.984C404.215 206.424 404.775 205.872 405.319 205.328C405.879 204.768 406.407 204.24 406.903 203.744C408.055 202.56 408.911 201.512 409.471 200.6C410.047 199.672 410.335 198.68 410.335 197.624C410.335 196.52 410.135 195.632 409.735 194.96C409.335 194.272 408.735 193.928 407.935 193.928C407.439 193.928 406.975 194.056 406.543 194.312C406.127 194.552 405.759 194.976 405.439 195.584L404.287 197.816H404.047ZM421.188 209.36C420.228 209.36 419.324 209.088 418.476 208.544C417.644 208 416.972 207.144 416.46 205.976C415.948 204.808 415.692 203.288 415.692 201.416C415.692 199.528 415.948 198 416.46 196.832C416.972 195.648 417.644 194.784 418.476 194.24C419.324 193.696 420.228 193.424 421.188 193.424C422.148 193.424 423.044 193.696 423.876 194.24C424.724 194.784 425.404 195.648 425.916 196.832C426.444 198 426.708 199.528 426.708 201.416C426.708 203.288 426.444 204.808 425.916 205.976C425.404 207.144 424.724 208 423.876 208.544C423.044 209.088 422.148 209.36 421.188 209.36ZM421.188 208.88C421.588 208.88 421.924 208.776 422.196 208.568C422.484 208.36 422.716 207.984 422.892 207.44C423.068 206.896 423.196 206.144 423.276 205.184C423.356 204.208 423.396 202.952 423.396 201.416C423.396 199.88 423.356 198.624 423.276 197.648C423.196 196.656 423.068 195.888 422.892 195.344C422.716 194.8 422.484 194.424 422.196 194.216C421.924 194.008 421.588 193.904 421.188 193.904C420.788 193.904 420.444 194.008 420.156 194.216C419.884 194.424 419.66 194.8 419.484 195.344C419.308 195.872 419.18 196.632 419.1 197.624C419.02 198.6 418.98 199.864 418.98 201.416C418.98 202.952 419.02 204.208 419.1 205.184C419.18 206.16 419.308 206.92 419.484 207.464C419.66 207.992 419.884 208.36 420.156 208.568C420.444 208.776 420.788 208.88 421.188 208.88ZM428.867 197.816L429.035 194.408C429.515 194.136 430.107 193.904 430.811 193.712C431.531 193.52 432.339 193.424 433.235 193.424C434.515 193.424 435.547 193.608 436.331 193.976C437.115 194.328 437.691 194.816 438.059 195.44C438.427 196.064 438.611 196.768 438.611 197.552C438.611 198.656 438.075 199.736 437.003 200.792C435.931 201.832 434.467 202.984 432.611 204.248C432.259 204.504 431.843 204.816 431.363 205.184C430.883 205.552 430.435 205.912 430.019 206.264H439.019V209H428.459V206.984C429.035 206.424 429.595 205.872 430.139 205.328C430.699 204.768 431.227 204.24 431.723 203.744C432.875 202.56 433.731 201.512 434.291 200.6C434.867 199.672 435.155 198.68 435.155 197.624C435.155 196.52 434.955 195.632 434.555 194.96C434.155 194.272 433.555 193.928 432.755 193.928C432.259 193.928 431.795 194.056 431.363 194.312C430.947 194.552 430.579 194.976 430.259 195.584L429.107 197.816H428.867ZM440.656 209V208.76L441.592 208.472C442.2 208.264 442.504 207.856 442.504 207.248V195.632L440.56 195.896V195.584C441.504 195.392 442.408 195.12 443.272 194.768C444.152 194.416 444.976 194.008 445.744 193.544L446.056 193.76L445.96 197.192V207.248C445.96 207.872 446.264 208.272 446.872 208.448L447.856 208.76V209H440.656Z" fill="black"/>
<rect x="2" y="2" width="668" height="241" stroke="black" stroke-width="4"/>
</g>
<defs>
<filter id="filter0_d" x="0" y="0" width="682" height="255" filterUnits="userSpaceOnUse" color-interpolation-filters="sRGB">
<feFlood flood-opacity="0" result="BackgroundImageFix"/>
<feColorMatrix in="SourceAlpha" type="matrix" values="0 0 0 0 0 0 0 0 0 0 0 0 0 0 0 0 0 0 127 0" result="hardAlpha"/>
<feOffset dx="10" dy="10"/>
<feComposite in2="hardAlpha" operator="out"/>
<feColorMatrix type="matrix" values="0 0 0 0 0 0 0 0 0 0 0 0 0 0 0 0 0 0 1 0"/>
<feBlend mode="normal" in2="BackgroundImageFix" result="effect1_dropShadow"/>
<feBlend mode="normal" in="SourceGraphic" in2="effect1_dropShadow" result="shape"/>
</filter>
</defs>
</svg>
