<svg width="116" height="115" viewBox="0 0 116 115" fill="none" xmlns="http://www.w3.org/2000/svg">
<g clip-path="url(#clip0)">
<path d="M0.00127959 21.5666L1.05442 21.3655L1.05201 21.3536C-0.750435 12.465 4.15468 6.48258 9.69499 6.48258H35.5449C38.4325 6.48258 40.5378 8.80619 40.5378 11.8729V14.4719C40.4461 14.4334 40.3529 14.3983 40.2585 14.3664C39.5707 14.1339 38.7966 14.061 38.0328 14.0359C37.5148 14.0188 36.9407 14.0233 36.3574 14.0278C36.087 14.0299 35.8146 14.0321 35.5449 14.0321H16.1575C14.1295 14.0321 12.2009 14.7308 10.9781 16.4746C9.7808 18.1821 9.42069 20.6689 9.98289 23.9054L9.98717 23.9301L9.99261 23.9545L11.0392 23.7219C9.99261 23.9545 9.99263 23.9546 9.99266 23.9547L9.99282 23.9554L9.99344 23.9582L9.99592 23.9694L10.0057 24.0136L10.0441 24.1864L10.1903 24.8452C10.3165 25.4143 10.4974 26.2308 10.7162 27.2203C11.1538 29.1994 11.7428 31.8703 12.3487 34.6377C13.5643 40.1907 14.8366 46.0822 15.1013 47.6007C15.4022 49.3268 16.2061 51.1321 17.4553 52.5245C18.7146 53.9283 20.4687 54.9511 22.6199 54.9511H35.5449C37.5751 54.9511 39.2952 54.1589 40.5378 52.8876V53.879C40.5378 54.9246 40.8041 56.0955 41.0967 57.1783C41.225 57.6529 41.3549 58.1005 41.48 58.5314C41.6597 59.1503 41.8294 59.7347 41.9697 60.3154C42.211 61.3137 42.2675 61.9551 42.1817 62.3028C42.1647 62.3717 42.1466 62.4065 42.1381 62.4203C42.1317 62.4307 42.1287 62.4329 42.1266 62.4343L42.1263 62.4346C42.1242 62.4361 42.0361 62.5006 41.7359 62.5006H19.253C16.4314 62.5006 13.6623 61.393 11.4637 59.6806C9.25672 57.9618 7.7165 55.7072 7.24352 53.517L7.24348 53.5168C7.04342 52.5911 5.49879 44.568 3.99867 36.7466C3.24987 32.8425 2.51379 28.9972 1.9649 26.1279L1.30379 22.6707L1.11943 21.7061L1.07096 21.4524L1.05854 21.3874L1.0554 21.371L1.05461 21.3668L1.05442 21.3658C1.05437 21.3656 1.05435 21.3655 0.00127959 21.5666ZM114.668 21.3532L114.665 21.3683L114.662 21.3835L115.718 21.5666C114.662 21.3835 114.662 21.3836 114.662 21.3838L114.662 21.3849L114.661 21.389L114.658 21.4055L114.647 21.4708L114.603 21.7256L114.434 22.6946C114.289 23.5304 114.081 24.7265 113.831 26.1676C113.329 29.05 112.656 32.9126 111.968 36.8337C110.588 44.7098 109.166 52.7338 108.953 53.6313L108.952 53.6328C108.446 55.7792 106.956 58.0059 104.812 59.7026C102.676 61.3926 99.9593 62.5006 97.0709 62.5006H73.9804C73.4555 62.5006 73.1094 62.3009 72.8172 61.9138C72.4864 61.4755 72.2269 60.7861 72.0512 59.8631C71.7449 58.2541 71.7535 56.3147 71.7609 54.6229C71.7621 54.3687 71.7632 54.1201 71.7632 53.879V51.5878C72.3115 52.0869 72.9214 52.5268 73.5384 52.9017C75.5948 54.1513 78.1561 54.9511 80.1747 54.9511H93.0997C95.2507 54.9511 97.0056 53.9284 98.2654 52.5247C99.515 51.1322 100.319 49.3265 100.619 47.5996C100.881 46.0819 102.154 40.1912 103.37 34.6377C103.976 31.8704 104.565 29.1995 105.003 27.2204C105.222 26.2309 105.403 25.4144 105.529 24.8453L105.675 24.1865L105.714 24.0137L105.724 23.9695L105.726 23.9584L105.727 23.9556L105.727 23.9549C105.727 23.9547 105.727 23.9547 104.68 23.7219L105.727 23.9547L105.732 23.9299L105.737 23.9048C106.297 20.6687 105.937 18.1821 104.74 16.4748C103.518 14.7309 101.59 14.0321 99.5621 14.0321H80.1747C79.9172 14.0321 79.6415 14.03 79.352 14.0279C77.7169 14.0159 75.6403 14.0007 73.8971 14.3284C73.1621 14.4666 72.4204 14.6759 71.7632 15.0096V11.8729C71.7632 10.6831 72.7989 9.34613 74.6519 8.2202C76.4455 7.13035 78.626 6.48258 80.1747 6.48258H106.025C111.565 6.48258 116.473 12.4654 114.668 21.3532ZM109.996 53.879C108.852 58.7259 103.398 63.5727 97.0709 63.5727H73.9804C70.6452 63.5727 70.6712 58.2175 70.6887 54.6054C70.6899 54.354 70.691 54.1111 70.691 53.879V50.4145L109.996 53.879ZM57.179 70.4597L57.1791 70.4598L58.2141 72.8604L59.1626 70.4242L59.1626 70.4242L59.1627 70.4238L59.1637 70.4214L59.1679 70.4107L59.1855 70.3659C59.2013 70.3259 59.2251 70.2662 59.2563 70.1887C59.3187 70.0337 59.4109 69.8079 59.5284 69.5276C59.7636 68.9665 60.0997 68.1896 60.5026 67.3273C61.3193 65.5792 62.3714 63.566 63.3862 62.2628C63.9121 61.5874 64.3197 61.2474 64.5692 61.1406C64.5922 61.1308 64.6098 61.1246 64.6228 61.1208C64.6406 61.1362 64.6678 61.1632 64.7033 61.2089C64.9367 61.5087 65.2474 62.2422 65.4815 63.7451C65.7089 65.2055 65.8448 67.2523 65.8448 70.0352C65.8448 81.4529 68.5466 89.6957 71.2773 95.1056C72.6413 97.8081 74.0101 99.7986 75.0469 101.122C75.0879 101.174 75.1283 101.225 75.1682 101.275H40.22C40.2599 101.225 40.3004 101.174 40.3414 101.122C41.3777 99.7985 42.7461 97.808 44.11 95.1055C46.8402 89.6957 49.5419 81.4529 49.5419 70.0352C49.5419 67.2553 49.6923 65.215 49.9429 63.7623C50.2003 62.2697 50.5401 61.5476 50.7964 61.2503C50.8524 61.1854 50.8948 61.1525 50.9195 61.1365C50.9428 61.1216 50.9555 61.1182 50.9604 61.1171C50.9639 61.1162 51.0159 61.103 51.1504 61.155C51.464 61.2762 51.9275 61.6349 52.5048 62.3042C53.6291 63.6081 54.7932 65.62 55.6967 67.3662C56.1425 68.2278 56.5143 69.004 56.7746 69.5646C56.9046 69.8446 57.0065 70.0702 57.0755 70.2249C57.0861 70.2487 57.096 70.2708 57.105 70.2911C57.1253 70.337 57.1417 70.3741 57.1538 70.4017L57.1732 70.4463L57.1779 70.457L57.1789 70.4594L57.179 70.4597ZM64.6512 61.1149C64.651 61.115 64.6498 61.1151 64.6475 61.1151C64.6502 61.1148 64.6514 61.1148 64.6512 61.1149ZM64.6021 61.1051C64.5991 61.1037 64.5977 61.1028 64.5979 61.1028C64.5981 61.1028 64.5995 61.1034 64.6021 61.1051Z" fill="#FFAC33" stroke="black" stroke-width="2.14423"/>
<path d="M58.1657 0.767916H58.1658L80.7845 0.764685L80.7847 0.764685C85.4968 0.763069 88.2013 1.34446 89.9125 3.71182C90.8047 4.94612 91.497 6.75811 91.9584 9.45727C92.419 12.1515 92.6372 15.6519 92.6372 20.2012C92.6372 30.8697 87.2748 45.3682 80.1438 57.2502C76.5877 63.1755 72.6284 68.3874 68.7445 72.1029C64.8144 75.8625 61.1472 77.9118 58.1657 77.9118C55.1833 77.9118 51.5157 75.8625 47.5855 72.1029C43.7014 68.3874 39.7423 63.1755 36.1864 57.2502C29.0557 45.3682 23.6942 30.8697 23.6942 20.2012C23.6942 11.8126 24.5131 6.95265 25.9899 4.20481C26.7063 2.87169 27.5637 2.06452 28.5523 1.57272C29.5611 1.0709 30.7916 0.855159 32.3158 0.855159C34.3373 0.855159 38.5487 0.837106 43.137 0.817436C43.5939 0.815477 44.0545 0.813502 44.5171 0.811528C49.6278 0.789713 54.9776 0.767916 58.1657 0.767916Z" fill="#FFCC4D" stroke="black" stroke-width="2.14423"/>
<path d="M85.7769 105.579C85.7769 106.129 85.7951 106.702 85.8117 107.225C85.8219 107.544 85.8314 107.845 85.8359 108.112C85.8488 108.876 85.825 109.462 85.7238 109.913C85.6272 110.343 85.482 110.553 85.3165 110.678C85.1371 110.813 84.7753 110.969 84.0152 110.969H32.3154C31.5644 110.969 31.1102 110.817 30.823 110.632C30.5444 110.452 30.3273 110.18 30.1597 109.755C29.7894 108.815 29.7589 107.431 29.7589 105.579V102.348C29.7589 100.954 30.4969 99.6144 31.687 98.5917C32.88 97.5664 34.4205 96.9572 35.8149 96.9572H80.784C83.4936 96.9572 85.7769 99.305 85.7769 102.348V105.579Z" fill="#C1694F" stroke="black" stroke-width="2.14423"/>
<path d="M92.2397 110.83C92.2397 111.124 92.2455 111.375 92.2507 111.605C92.2582 111.931 92.2646 112.214 92.2523 112.516C92.2331 112.991 92.1664 113.273 92.0652 113.458C91.9316 113.703 91.4931 114.2 89.2663 114.2H27.065C25.1199 114.2 24.2885 113.736 23.8936 113.275C23.4701 112.78 23.2967 112.011 23.2967 110.83V110.022C23.2967 108.272 25.0805 106.651 27.065 106.651H89.2663C90.9987 106.651 92.2397 108.022 92.2397 110.022V110.83Z" fill="#C1694F" stroke="black" stroke-width="2.14423"/>
</g>
<defs>
<clipPath id="clip0">
<rect width="116" height="115" fill="white"/>
</clipPath>
</defs>
</svg>
