<svg width="56" height="56" viewBox="0 0 56 56" fill="none" xmlns="http://www.w3.org/2000/svg">
<path fill-rule="evenodd" clip-rule="evenodd" d="M16.4564 0.168C19.4422 0.0305454 20.3942 0 28 0C35.6058 0 36.5578 0.0330909 39.5411 0.168C42.5244 0.302909 44.5607 0.778909 46.3425 1.46873C48.2084 2.17382 49.9011 3.276 51.3011 4.70145C52.7265 6.09891 53.8262 7.78909 54.5287 9.65745C55.2211 11.4393 55.6945 13.4756 55.832 16.4538C55.9695 19.4447 56 20.3967 56 28C56 35.6058 55.9669 36.5578 55.832 39.5436C55.6971 42.5218 55.2211 44.5582 54.5287 46.34C53.8262 48.2086 52.7247 49.9016 51.3011 51.3011C49.9011 52.7265 48.2084 53.8262 46.3425 54.5287C44.5607 55.2211 42.5244 55.6945 39.5462 55.832C36.5578 55.9695 35.6058 56 28 56C20.3942 56 19.4422 55.9669 16.4564 55.832C13.4782 55.6971 11.4418 55.2211 9.66 54.5287C7.79143 53.8261 6.09845 52.7246 4.69891 51.3011C3.27442 49.9028 2.17207 48.2106 1.46873 46.3425C0.778909 44.5607 0.305454 42.5244 0.168 39.5462C0.0305454 36.5553 0 35.6033 0 28C0 20.3942 0.0330909 19.4422 0.168 16.4589C0.302909 13.4756 0.778909 11.4393 1.46873 9.65745C2.17311 7.7893 3.2763 6.09716 4.70145 4.69891C6.09901 3.27473 7.79029 2.1724 9.65745 1.46873C11.4393 0.778909 13.4756 0.305454 16.4538 0.168H16.4564ZM39.3145 5.208C36.3618 5.07309 35.476 5.04509 28 5.04509C20.524 5.04509 19.6382 5.07309 16.6855 5.208C13.9542 5.33273 12.4727 5.78836 11.4851 6.17273C10.1793 6.68182 9.24509 7.28509 8.26509 8.26509C7.33611 9.16886 6.62119 10.2691 6.17273 11.4851C5.78836 12.4727 5.33273 13.9542 5.208 16.6855C5.07309 19.6382 5.04509 20.524 5.04509 28C5.04509 35.476 5.07309 36.3618 5.208 39.3145C5.33273 42.0458 5.78836 43.5273 6.17273 44.5149C6.62073 45.7291 7.336 46.8313 8.26509 47.7349C9.16873 48.664 10.2709 49.3793 11.4851 49.8273C12.4727 50.2116 13.9542 50.6673 16.6855 50.792C19.6382 50.9269 20.5215 50.9549 28 50.9549C35.4785 50.9549 36.3618 50.9269 39.3145 50.792C42.0458 50.6673 43.5273 50.2116 44.5149 49.8273C45.8207 49.3182 46.7549 48.7149 47.7349 47.7349C48.664 46.8313 49.3793 45.7291 49.8273 44.5149C50.2116 43.5273 50.6673 42.0458 50.792 39.3145C50.9269 36.3618 50.9549 35.476 50.9549 28C50.9549 20.524 50.9269 19.6382 50.792 16.6855C50.6673 13.9542 50.2116 12.4727 49.8273 11.4851C49.3182 10.1793 48.7149 9.24509 47.7349 8.26509C46.8311 7.33618 45.7309 6.62126 44.5149 6.17273C43.5273 5.78836 42.0458 5.33273 39.3145 5.208ZM24.4236 36.6316C26.4209 37.4631 28.645 37.5753 30.7158 36.9491C32.7867 36.3229 34.5759 34.9972 35.7779 33.1984C36.9799 31.3996 37.5201 29.2393 37.3063 27.0864C37.0925 24.9336 36.1378 22.9217 34.6055 21.3945C33.6286 20.4183 32.4474 19.6708 31.147 19.2058C29.8466 18.7409 28.4593 18.57 27.0849 18.7056C25.7105 18.8411 24.3833 19.2797 23.1988 19.9898C22.0142 20.6998 21.0019 21.6637 20.2346 22.812C19.4673 23.9603 18.9641 25.2644 18.7613 26.6304C18.5585 27.9965 18.6611 29.3906 19.0617 30.7122C19.4624 32.0339 20.151 33.2503 21.0782 34.2738C22.0054 35.2974 23.1479 36.1026 24.4236 36.6316ZM17.8233 17.8233C19.1597 16.4868 20.7463 15.4267 22.4924 14.7035C24.2385 13.9802 26.11 13.6079 28 13.6079C29.89 13.6079 31.7615 13.9802 33.5076 14.7035C35.2537 15.4267 36.8403 16.4868 38.1767 17.8233C39.5132 19.1597 40.5733 20.7463 41.2965 22.4924C42.0198 24.2385 42.3921 26.11 42.3921 28C42.3921 29.89 42.0198 31.7615 41.2965 33.5076C40.5733 35.2537 39.5132 36.8403 38.1767 38.1767C35.4777 40.8758 31.817 42.3921 28 42.3921C24.183 42.3921 20.5223 40.8758 17.8233 38.1767C15.1242 35.4777 13.6079 31.817 13.6079 28C13.6079 24.183 15.1242 20.5223 17.8233 17.8233ZM45.584 15.7513C45.9152 15.4389 46.1803 15.0632 46.3637 14.6465C46.5471 14.2298 46.645 13.7805 46.6516 13.3253C46.6582 12.8701 46.5735 12.4181 46.4023 11.9962C46.2312 11.5744 45.9771 11.1911 45.6552 10.8692C45.3332 10.5473 44.95 10.2932 44.5281 10.122C44.1062 9.95089 43.6543 9.86612 43.1991 9.87276C42.7439 9.87939 42.2946 9.9773 41.8779 10.1607C41.4612 10.3441 41.0855 10.6092 40.7731 10.9404C40.1655 11.5844 39.8329 12.4399 39.8458 13.3253C39.8587 14.2106 40.2161 15.0561 40.8422 15.6821C41.4683 16.3082 42.3138 16.6657 43.1991 16.6786C44.0844 16.6915 44.9399 16.3588 45.584 15.7513Z" fill="#FF9FC2"/>
</svg>
