<svg width="66" height="34" viewBox="0 0 66 34" fill="none" xmlns="http://www.w3.org/2000/svg">
<rect x="1" y="0.5" width="64" height="33" rx="3.5" fill="#FF8577"/>
<path d="M16.6784 22.168C15.7637 22.168 15.0357 21.9113 14.4944 21.398C13.9624 20.8847 13.6964 20.1613 13.6964 19.228H15.1804C15.1804 19.6947 15.2924 20.082 15.5164 20.39C15.7497 20.698 16.1277 20.852 16.6504 20.852C17.1637 20.852 17.5277 20.7073 17.7424 20.418C17.957 20.1193 18.0644 19.7413 18.0644 19.284V12.2H19.5484V19.284C19.5484 20.208 19.2917 20.922 18.7784 21.426C18.265 21.9207 17.565 22.168 16.6784 22.168ZM24.0371 22.168C23.1971 22.168 22.5344 21.9067 22.0491 21.384C21.5731 20.8613 21.3351 20.082 21.3351 19.046V15.056H22.8191V18.892C22.8191 20.236 23.3698 20.908 24.4711 20.908C25.0218 20.908 25.4744 20.712 25.8291 20.32C26.1838 19.928 26.3611 19.368 26.3611 18.64V15.056H27.8451V22H26.5291L26.4171 20.782C26.2024 21.2113 25.8851 21.552 25.4651 21.804C25.0544 22.0467 24.5784 22.168 24.0371 22.168ZM32.8969 22.168C32.2249 22.168 31.6323 22.0093 31.1189 21.692C30.6056 21.3747 30.2043 20.9407 29.9149 20.39C29.6256 19.8393 29.4809 19.214 29.4809 18.514C29.4809 17.814 29.6256 17.1933 29.9149 16.652C30.2043 16.1013 30.6056 15.672 31.1189 15.364C31.6416 15.0467 32.2389 14.888 32.9109 14.888C33.4616 14.888 33.9423 14.9953 34.3529 15.21C34.7729 15.4247 35.0996 15.728 35.3329 16.12V11.92H36.8169V22H35.4869L35.3329 20.922C35.1089 21.2487 34.8009 21.538 34.4089 21.79C34.0169 22.042 33.5129 22.168 32.8969 22.168ZM33.1629 20.88C33.7976 20.88 34.3156 20.6607 34.7169 20.222C35.1276 19.7833 35.3329 19.2187 35.3329 18.528C35.3329 17.828 35.1276 17.2633 34.7169 16.834C34.3156 16.3953 33.7976 16.176 33.1629 16.176C32.5283 16.176 32.0056 16.3953 31.5949 16.834C31.1843 17.2633 30.9789 17.828 30.9789 18.528C30.9789 18.9853 31.0723 19.3913 31.2589 19.746C31.4456 20.1007 31.7023 20.3807 32.0289 20.586C32.3649 20.782 32.7429 20.88 33.1629 20.88ZM41.53 19.872C41.166 19.872 40.83 19.83 40.522 19.746L39.92 20.334C40.0227 20.3993 40.1487 20.4553 40.298 20.502C40.4473 20.5487 40.6573 20.5907 40.928 20.628C41.1987 20.6653 41.5673 20.7027 42.034 20.74C42.958 20.824 43.6253 21.048 44.036 21.412C44.4467 21.7667 44.652 22.2427 44.652 22.84C44.652 23.2507 44.54 23.638 44.316 24.002C44.1013 24.3753 43.7607 24.674 43.294 24.898C42.8367 25.1313 42.2487 25.248 41.53 25.248C40.5593 25.248 39.7707 25.0613 39.164 24.688C38.5667 24.324 38.268 23.7687 38.268 23.022C38.268 22.7327 38.3427 22.4433 38.492 22.154C38.6507 21.874 38.898 21.608 39.234 21.356C39.038 21.272 38.8653 21.1833 38.716 21.09C38.576 20.9873 38.45 20.8847 38.338 20.782V20.446L39.542 19.214C39.0007 18.7473 38.73 18.136 38.73 17.38C38.73 16.9227 38.8373 16.5073 39.052 16.134C39.276 15.7513 39.598 15.448 40.018 15.224C40.438 15 40.942 14.888 41.53 14.888C41.922 14.888 42.286 14.944 42.622 15.056H45.212V16.036L43.98 16.106C44.204 16.4887 44.316 16.9133 44.316 17.38C44.316 17.8467 44.204 18.2667 43.98 18.64C43.7653 19.0133 43.448 19.312 43.028 19.536C42.6173 19.76 42.118 19.872 41.53 19.872ZM41.53 18.71C41.9593 18.71 42.3047 18.598 42.566 18.374C42.8367 18.1407 42.972 17.814 42.972 17.394C42.972 16.9647 42.8367 16.638 42.566 16.414C42.3047 16.19 41.9593 16.078 41.53 16.078C41.0913 16.078 40.7367 16.19 40.466 16.414C40.2047 16.638 40.074 16.9647 40.074 17.394C40.074 17.814 40.2047 18.1407 40.466 18.374C40.7367 18.598 41.0913 18.71 41.53 18.71ZM39.668 22.882C39.668 23.2833 39.8453 23.582 40.2 23.778C40.5547 23.9833 40.998 24.086 41.53 24.086C42.0433 24.086 42.4587 23.974 42.776 23.75C43.0933 23.5353 43.252 23.246 43.252 22.882C43.252 22.6113 43.1447 22.378 42.93 22.182C42.7153 21.9953 42.3093 21.8787 41.712 21.832C41.264 21.804 40.8673 21.762 40.522 21.706C40.1953 21.8833 39.9713 22.0747 39.85 22.28C39.7287 22.4853 39.668 22.686 39.668 22.882ZM49.5102 22.168C48.8289 22.168 48.2222 22.0187 47.6902 21.72C47.1676 21.412 46.7569 20.9873 46.4582 20.446C46.1596 19.9047 46.0102 19.2747 46.0102 18.556C46.0102 17.828 46.1549 17.1887 46.4442 16.638C46.7429 16.0873 47.1536 15.658 47.6762 15.35C48.2082 15.042 48.8242 14.888 49.5242 14.888C50.2056 14.888 50.7982 15.042 51.3022 15.35C51.8062 15.6487 52.1982 16.05 52.4782 16.554C52.7582 17.058 52.8982 17.6133 52.8982 18.22C52.8982 18.3133 52.8936 18.416 52.8842 18.528C52.8842 18.6307 52.8796 18.7473 52.8702 18.878H47.4662C47.5129 19.55 47.7322 20.0633 48.1242 20.418C48.5256 20.7633 48.9876 20.936 49.5102 20.936C49.9302 20.936 50.2802 20.8427 50.5602 20.656C50.8496 20.46 51.0642 20.1987 51.2042 19.872H52.6882C52.5016 20.5253 52.1282 21.0713 51.5682 21.51C51.0176 21.9487 50.3316 22.168 49.5102 22.168ZM49.5102 16.106C49.0156 16.106 48.5769 16.2553 48.1942 16.554C47.8116 16.8433 47.5782 17.282 47.4942 17.87H51.4142C51.3862 17.3287 51.1949 16.8993 50.8402 16.582C50.4856 16.2647 50.0422 16.106 49.5102 16.106Z" fill="black"/>
<rect x="1" y="0.5" width="64" height="33" rx="3.5" stroke="black"/>
</svg>
