<svg width="56" height="56" viewBox="0 0 56 56" fill="none" xmlns="http://www.w3.org/2000/svg">
<path d="M10.9794 0.013916C4.94721 0.013916 0.0102539 4.95076 0.0102539 10.983V45.0221C0.0102539 51.0543 4.9471 55.9894 10.9794 55.9894H45.0185C51.0507 55.9894 55.9858 51.0543 55.9858 45.0221V10.983C55.9858 4.95088 51.0507 0.013916 45.0185 0.013916H10.9794ZM13.7383 9.251C16.6306 9.251 18.4121 11.1497 18.4671 13.6456C18.4671 16.0864 16.6304 18.0385 13.6823 18.0385H13.6281C10.7908 18.0385 8.95698 16.0865 8.95698 13.6456C8.95698 11.1498 10.8463 9.251 13.7382 9.251H13.7383ZM38.6627 20.9164C44.2252 20.9164 48.395 24.552 48.395 32.3648V46.9499H39.9416V33.3427C39.9416 29.9233 38.7182 27.5904 35.659 27.5904C33.3235 27.5904 31.9315 29.1628 31.3203 30.6818C31.097 31.2252 31.0422 31.9841 31.0422 32.7443V46.9499H22.5888C22.5888 46.9499 22.6997 23.8996 22.5888 21.5129H31.0439V25.115C32.1672 23.3818 34.1766 20.9163 38.6627 20.9163V20.9164ZM9.45561 21.5147H17.909V46.95H9.45561V21.5147Z" fill="#FF9FC2"/>
</svg>
