<svg width="378" height="132" viewBox="0 0 378 132" fill="none" xmlns="http://www.w3.org/2000/svg">
<path d="M0 99.6509V53.0469H10.7114L11.8389 61.7852C13.5302 58.7785 15.8165 56.3982 18.6979 54.6443C21.642 52.8277 25.0872 51.9194 29.0335 51.9194V64.604H25.6509C23.0201 64.604 20.6711 65.0111 18.604 65.8254C16.5369 66.6398 14.9082 68.0491 13.7181 70.0536C12.5906 72.0581 12.0268 74.8456 12.0268 78.416V99.6509H0Z" fill="black"/>
<path d="M57.1813 99.6509C52.4833 99.6509 48.3178 98.6487 44.6847 96.6442C41.0516 94.6398 38.2015 91.821 36.1344 88.1879C34.0672 84.5548 33.0337 80.3579 33.0337 75.5973C33.0337 70.774 34.0359 66.4832 36.0404 62.7248C38.1075 58.9665 40.9263 56.0537 44.4967 53.9866C48.1299 51.8569 52.3893 50.792 57.2752 50.792C61.8479 50.792 65.8882 51.7942 69.396 53.7987C72.9038 55.8032 75.6287 58.5593 77.5705 62.0671C79.575 65.5123 80.5772 69.3647 80.5772 73.6242C80.5772 74.3132 80.5459 75.0335 80.4832 75.7852C80.4832 76.5369 80.4519 77.3199 80.3893 78.1342H44.9665C45.2171 81.7673 46.4699 84.6174 48.7249 86.6845C51.0426 88.7516 53.8301 89.7852 57.0873 89.7852C59.5303 89.7852 61.5661 89.2527 63.1947 88.1879C64.886 87.0604 66.1388 85.6196 66.9531 83.8657H79.1678C78.2909 86.8098 76.8188 89.5033 74.7517 91.9463C72.7472 94.3266 70.2417 96.2057 67.2349 97.5838C64.2909 98.9619 60.9397 99.6509 57.1813 99.6509Z" fill="#11A858"/>
<rect x="84.5771" y="63.6509" width="16" height="12" fill="black"/>
<path d="M112.094 45.812C109.902 45.812 108.085 45.1543 106.644 43.8389C105.266 42.5235 104.577 40.8635 104.577 38.859C104.577 36.8546 105.266 35.2259 106.644 33.9731C108.085 32.6577 109.902 32 112.094 32C114.286 32 116.072 32.6577 117.45 33.9731C118.89 35.2259 119.611 36.8546 119.611 38.859C119.611 40.8635 118.89 42.5235 117.45 43.8389C116.072 45.1543 114.286 45.812 112.094 45.812ZM106.081 99.6508V53.0469H118.107V99.6508H106.081Z" fill="black"/>
<path d="M147.758 99.6508C142.872 99.6508 138.957 98.4607 136.013 96.0803C133.069 93.7 131.597 89.4719 131.597 83.3958V63.1006H123.61V53.0469H131.597L133.006 40.5503H143.624V53.0469H156.214V63.1006H143.624V83.4898C143.624 85.7448 144.094 87.3108 145.033 88.1878C146.035 89.0021 147.727 89.4092 150.107 89.4092H155.932V99.6508H147.758Z" fill="black"/>
<path d="M184.362 99.6509C179.664 99.6509 175.498 98.6487 171.865 96.6442C168.232 94.6398 165.382 91.821 163.315 88.1879C161.248 84.5548 160.214 80.3579 160.214 75.5973C160.214 70.774 161.217 66.4832 163.221 62.7248C165.288 58.9665 168.107 56.0537 171.677 53.9866C175.311 51.8569 179.57 50.792 184.456 50.792C189.029 50.792 193.069 51.7942 196.577 53.7987C200.085 55.8032 202.809 58.5593 204.751 62.0671C206.756 65.5123 207.758 69.3647 207.758 73.6242C207.758 74.3132 207.727 75.0335 207.664 75.7852C207.664 76.5369 207.633 77.3199 207.57 78.1342H172.147C172.398 81.7673 173.651 84.6174 175.906 86.6845C178.223 88.7516 181.011 89.7852 184.268 89.7852C186.711 89.7852 188.747 89.2527 190.375 88.1879C192.067 87.0604 193.319 85.6196 194.134 83.8657H206.348C205.472 86.8098 203.999 89.5033 201.932 91.9463C199.928 94.3266 197.422 96.2057 194.416 97.5838C191.472 98.9619 188.12 99.6509 184.362 99.6509Z" fill="#F24D1D"/>
<path d="M211.758 99.6509V53.0469H222.469L223.597 61.7852C225.288 58.7785 227.574 56.3982 230.456 54.6443C233.4 52.8277 236.845 51.9194 240.791 51.9194V64.604H237.409C234.778 64.604 232.429 65.0111 230.362 65.8254C228.295 66.6398 226.666 68.0491 225.476 70.0536C224.348 72.0581 223.785 74.8456 223.785 78.416V99.6509H211.758Z" fill="black"/>
<path d="M262.268 99.6509C258.259 99.6509 254.97 99.0245 252.402 97.7717C249.834 96.4563 247.923 94.7337 246.671 92.604C245.418 90.4742 244.792 88.1252 244.792 85.557C244.792 81.2349 246.483 77.727 249.865 75.0335C253.248 72.34 258.322 70.9933 265.087 70.9933H276.926V69.8658C276.926 66.6711 276.017 64.3222 274.201 62.8188C272.384 61.3155 270.129 60.5638 267.436 60.5638C264.993 60.5638 262.863 61.1589 261.046 62.349C259.23 63.4765 258.102 65.1678 257.664 67.4228H245.919C246.232 64.0403 247.36 61.0962 249.302 58.5906C251.306 56.085 253.874 54.1745 257.006 52.8591C260.138 51.481 263.646 50.792 267.53 50.792C274.17 50.792 279.4 52.4519 283.221 55.7718C287.042 59.0917 288.952 63.7897 288.952 69.8658V98.5234H278.711L277.583 91.0067C276.205 93.5122 274.263 95.5794 271.758 97.208C269.315 98.8366 266.152 99.6509 262.268 99.6509Z" fill="#0B80BD"/>
<path d="M317.1 99.6508C312.214 99.6508 308.299 98.4607 305.355 96.0803C302.411 93.7 300.939 89.4719 300.939 83.3958V63.1006H292.953V53.0469H300.939L302.349 40.5503H312.966V53.0469H325.557V63.1006H312.966V83.4898C312.966 85.7448 313.436 87.3108 314.375 88.1878C315.378 89.0021 317.069 89.4092 319.449 89.4092H325.275V99.6508H317.1Z" fill="black"/>
<path d="M353.704 99.6509C349.006 99.6509 344.84 98.6487 341.207 96.6442C337.574 94.6398 334.724 91.821 332.657 88.1879C330.59 84.5548 329.556 80.3579 329.556 75.5973C329.556 70.774 330.558 66.4832 332.563 62.7248C334.63 58.9665 337.449 56.0537 341.019 53.9866C344.652 51.8569 348.912 50.792 353.798 50.792C358.37 50.792 362.411 51.7942 365.918 53.7987C369.426 55.8032 372.151 58.5593 374.093 62.0671C376.097 65.5123 377.1 69.3647 377.1 73.6242C377.1 74.3132 377.068 75.0335 377.006 75.7852C377.006 76.5369 376.974 77.3199 376.912 78.1342H341.489C341.74 81.7673 342.992 84.6174 345.247 86.6845C347.565 88.7516 350.353 89.7852 353.61 89.7852C356.053 89.7852 358.089 89.2527 359.717 88.1879C361.408 87.0604 362.661 85.6196 363.476 83.8657H375.69C374.813 86.8098 373.341 89.5033 371.274 91.9463C369.27 94.3266 366.764 96.2057 363.757 97.5838C360.813 98.9619 357.462 99.6509 353.704 99.6509Z" fill="#FF8577"/>
</svg>
