<svg width="1440" height="459" viewBox="0 0 1440 459" fill="none" xmlns="http://www.w3.org/2000/svg">
<g clip-path="url(#clip0)">
<rect width="1440" height="458.078" fill="#F1F58F"/>
<path d="M186.637 37.9189C185.108 33.7632 184.413 29.3471 184.592 24.9228C184.77 20.4986 185.818 16.1528 187.676 12.1336C189.534 8.11448 192.165 4.50068 195.42 1.4986C198.675 -1.50349 202.489 -3.83505 206.645 -5.36297C224.122 -11.7899 243.501 -2.83266 249.928 14.6454" stroke="#B686B8" stroke-width="5.01993" stroke-miterlimit="10"/>
<path d="M193.782 35.2916C191.385 28.7731 191.667 21.5723 194.567 15.2735C197.467 8.97464 202.746 4.09366 209.244 1.7043C215.742 -0.685052 222.925 -0.387062 229.215 2.53272C235.504 5.45251 240.384 10.7549 242.782 17.2735" stroke="#E16338" stroke-width="5.01993" stroke-miterlimit="10"/>
<path d="M200.614 32.7793C198.891 28.0934 199.1 22.915 201.195 18.3832C203.29 13.8513 207.099 10.3374 211.785 8.61428C216.471 6.89118 221.65 7.10012 226.181 9.19511C230.713 11.2901 234.227 15.0995 235.95 19.7854" stroke="#E89670" stroke-width="5.01993" stroke-miterlimit="10"/>
<path d="M-0.000112441 276.355C1.01921 272.237 2.8335 268.362 5.33916 264.951C7.84481 261.54 10.9928 258.659 14.6032 256.474C18.2137 254.289 22.216 252.842 26.3816 252.215C30.5472 251.589 34.7944 251.795 38.8808 252.822C56.0673 257.143 66.5242 274.682 62.2363 292" stroke="#B686B8" stroke-width="5.01993" stroke-miterlimit="10"/>
<path d="M7.02616 278.121C8.62535 271.662 12.6972 266.106 18.3461 262.675C23.9949 259.244 30.758 258.219 37.1474 259.825C43.5369 261.431 49.0294 265.537 52.4167 271.24C55.8039 276.943 56.8084 283.775 55.2092 290.233" stroke="#E16338" stroke-width="5.01993" stroke-miterlimit="10"/>
<path d="M13.7444 279.81C14.894 275.167 17.8269 271.174 21.898 268.71C25.969 266.247 30.8448 265.513 35.4526 266.671C40.0604 267.83 44.0228 270.785 46.4681 274.887C48.9134 278.989 49.6414 283.902 48.4918 288.545" stroke="#E89670" stroke-width="5.01993" stroke-miterlimit="10"/>
<path d="M1183 24.8307C1184.01 20.5192 1185.86 16.4485 1188.44 12.8512C1191.02 9.25385 1194.28 6.20027 1198.05 3.86482C1201.81 1.52938 1205.99 -0.0421908 1210.36 -0.760137C1214.73 -1.47808 1219.2 -1.32835 1223.51 -0.319478C1241.64 3.92255 1252.9 22.0594 1248.66 40.1921" stroke="#B686B8" stroke-width="5.01993" stroke-miterlimit="10"/>
<path d="M1190.41 26.5651C1192 19.8024 1196.19 13.9431 1202.08 10.2764C1207.96 6.60957 1215.05 5.43558 1221.8 7.01266C1228.54 8.58973 1234.37 12.7887 1238.02 18.6858C1241.67 24.5829 1242.83 31.6951 1241.25 38.4578" stroke="#E16338" stroke-width="5.01993" stroke-miterlimit="10"/>
<path d="M1197.5 28.223C1198.64 23.3616 1201.66 19.1512 1205.9 16.5179C1210.14 13.8846 1215.26 13.0441 1220.12 14.1814C1224.98 15.3188 1229.19 18.3407 1231.82 22.5824C1234.46 26.8241 1235.3 31.9381 1234.16 36.7995" stroke="#E89670" stroke-width="5.01993" stroke-miterlimit="10"/>
<path d="M1388.92 337.386C1387.36 333.245 1386.62 328.835 1386.76 324.41C1386.9 319.984 1387.91 315.629 1389.73 311.593C1391.55 307.557 1394.15 303.919 1397.38 300.888C1400.6 297.856 1404.4 295.49 1408.54 293.924C1425.96 287.339 1445.41 296.119 1452 313.538" stroke="#B686B8" stroke-width="5.01993" stroke-miterlimit="10"/>
<path d="M1396.05 334.694C1393.59 328.198 1393.81 320.995 1396.65 314.67C1399.49 308.345 1404.73 303.416 1411.2 300.968C1417.68 298.519 1424.86 298.752 1431.18 301.614C1437.49 304.477 1442.42 309.735 1444.88 316.231" stroke="#E16338" stroke-width="5.01993" stroke-miterlimit="10"/>
<path d="M1402.85 332.12C1401.09 327.45 1401.25 322.27 1403.3 317.719C1405.36 313.168 1409.14 309.62 1413.81 307.854C1418.48 306.088 1423.66 306.25 1428.21 308.304C1432.76 310.358 1436.3 314.135 1438.07 318.805" stroke="#E89670" stroke-width="5.01993" stroke-miterlimit="10"/>
<path d="M740 150.957C740.935 146.629 742.713 142.527 745.233 138.886C747.753 135.246 750.965 132.137 754.687 129.738C758.408 127.338 762.566 125.696 766.922 124.903C771.278 124.111 775.748 124.185 780.076 125.12C798.278 129.052 809.846 146.995 805.914 165.197" stroke="#B686B8" stroke-width="5.01993" stroke-miterlimit="10"/>
<path d="M747.442 152.565C748.908 145.776 753.003 139.846 758.825 136.08C764.647 132.313 771.72 131.018 778.487 132.48C785.254 133.942 791.161 138.041 794.909 143.875C798.657 149.709 799.938 156.801 798.472 163.59" stroke="#E16338" stroke-width="5.01993" stroke-miterlimit="10"/>
<path d="M754.556 154.102C755.611 149.222 758.56 144.96 762.757 142.255C766.953 139.55 772.052 138.623 776.932 139.677C781.812 140.731 786.073 143.681 788.779 147.877C791.484 152.073 792.411 157.172 791.357 162.052" stroke="#E89670" stroke-width="5.01993" stroke-miterlimit="10"/>
<path d="M342 281.283C342.708 276.912 344.27 272.724 346.597 268.956C348.924 265.189 351.97 261.917 355.561 259.327C359.152 256.737 363.219 254.88 367.528 253.862C371.837 252.843 376.304 252.684 380.675 253.392C399.057 256.37 411.545 273.685 408.567 292.068" stroke="#B686B8" stroke-width="5.01993" stroke-miterlimit="10"/>
<path d="M349.516 282.501C350.626 275.645 354.406 269.51 360.024 265.445C365.642 261.38 372.637 259.718 379.471 260.825C386.305 261.932 392.418 265.718 396.465 271.349C400.512 276.979 402.162 283.994 401.051 290.85" stroke="#E16338" stroke-width="5.01993" stroke-miterlimit="10"/>
<path d="M356.701 283.665C357.499 278.736 360.223 274.327 364.272 271.407C368.322 268.487 373.365 267.295 378.294 268.093C383.222 268.891 387.632 271.615 390.552 275.665C393.472 279.714 394.664 284.758 393.866 289.686" stroke="#E89670" stroke-width="5.01993" stroke-miterlimit="10"/>
<path d="M630.856 458.078C630.218 453.696 630.45 449.232 631.537 444.94C632.624 440.647 634.547 436.611 637.194 433.062C639.841 429.513 643.162 426.52 646.966 424.254C650.77 421.988 654.983 420.494 659.365 419.856C677.792 417.174 694.905 429.937 697.587 448.366" stroke="#B686B8" stroke-width="5.01993" stroke-miterlimit="10"/>
<path d="M638.39 456.982C637.39 450.109 639.152 443.121 643.289 437.556C647.426 431.992 653.599 428.305 660.45 427.308C667.301 426.311 674.268 428.085 679.82 432.24C685.372 436.394 689.052 442.59 690.053 449.463" stroke="#E16338" stroke-width="5.01993" stroke-miterlimit="10"/>
<path d="M645.593 455.933C644.874 450.992 646.147 445.969 649.132 441.967C652.117 437.965 656.57 435.312 661.51 434.593C666.451 433.874 671.475 435.147 675.477 438.132C679.479 441.117 682.131 445.57 682.85 450.511" stroke="#E89670" stroke-width="5.01993" stroke-miterlimit="10"/>
</g>
<defs>
<clipPath id="clip0">
<rect width="1440" height="458.078" fill="white"/>
</clipPath>
</defs>
</svg>
