<svg width="116" height="115" viewBox="0 0 116 115" fill="none" xmlns="http://www.w3.org/2000/svg">
<g clip-path="url(#clip0)">
<path d="M0.00127959 21.6185L1.05442 21.4173L1.05201 21.4055C-0.750436 12.5169 4.15468 6.53446 9.69499 6.53446H35.5449C38.4325 6.53446 40.5378 8.85807 40.5378 11.9248V14.5238C40.4461 14.4853 40.3529 14.4502 40.2585 14.4183C39.5707 14.1858 38.7966 14.1129 38.0328 14.0877C37.5148 14.0707 36.9407 14.0752 36.3574 14.0797C36.087 14.0818 35.8146 14.0839 35.5449 14.0839H16.1575C14.1295 14.0839 12.2009 14.7826 10.9781 16.5265C9.7808 18.234 9.42069 20.7208 9.98289 23.9572L9.98717 23.9819L9.99261 24.0064L11.0392 23.7738C9.99261 24.0064 9.99263 24.0065 9.99266 24.0066L9.99282 24.0073L9.99344 24.0101L9.99592 24.0213L10.0057 24.0655L10.0441 24.2382L10.1903 24.897C10.3165 25.4662 10.4974 26.2827 10.7162 27.2722C11.1538 29.2513 11.7428 31.9221 12.3487 34.6896C13.5643 40.2425 14.8366 46.1341 15.1013 47.6525C15.4022 49.3787 16.2061 51.184 17.4553 52.5764C18.7146 53.9802 20.4687 55.003 22.6199 55.003H35.5449C37.5751 55.003 39.2952 54.2108 40.5378 52.9395V53.9309C40.5378 54.9765 40.8041 56.1474 41.0967 57.2302C41.225 57.7048 41.3549 58.1524 41.48 58.5833C41.6597 59.2021 41.8294 59.7866 41.9697 60.3673C42.211 61.3656 42.2675 62.0069 42.1817 62.3547C42.1647 62.4236 42.1466 62.4584 42.1381 62.4722C42.1317 62.4826 42.1287 62.4847 42.1266 62.4862L42.1263 62.4864C42.1242 62.4879 42.0361 62.5525 41.7359 62.5525H19.253C16.4314 62.5525 13.6623 61.4448 11.4637 59.7325C9.25672 58.0137 7.7165 55.7591 7.24352 53.5689L7.24348 53.5687C7.04342 52.643 5.49879 44.6199 3.99867 36.7985C3.24987 32.8944 2.51379 29.0491 1.9649 26.1798L1.30379 22.7226L1.11943 21.758L1.07096 21.5043L1.05854 21.4393L1.0554 21.4229L1.05461 21.4187L1.05442 21.4177C1.05437 21.4175 1.05435 21.4173 0.00127959 21.6185ZM114.668 21.4051L114.665 21.4202L114.662 21.4354L115.718 21.6185C114.662 21.4354 114.662 21.4355 114.662 21.4357L114.662 21.4368L114.661 21.4409L114.658 21.4574L114.647 21.5227L114.603 21.7775L114.434 22.7465C114.289 23.5823 114.081 24.7784 113.831 26.2195C113.329 29.1019 112.656 32.9645 111.968 36.8856C110.588 44.7617 109.166 52.7857 108.953 53.6831L108.952 53.6846C108.446 55.831 106.956 58.0578 104.812 59.7545C102.676 61.4445 99.9593 62.5525 97.0709 62.5525H73.9804C73.4555 62.5525 73.1094 62.3528 72.8172 61.9657C72.4864 61.5274 72.2269 60.838 72.0512 59.915C71.7449 58.306 71.7535 56.3666 71.7609 54.6748C71.7621 54.4206 71.7632 54.172 71.7632 53.9309V51.6397C72.3115 52.1387 72.9214 52.5787 73.5384 52.9536C75.5948 54.2032 78.1561 55.003 80.1747 55.003H93.0997C95.2507 55.003 97.0056 53.9803 98.2654 52.5766C99.515 51.1841 100.319 49.3784 100.619 47.6515C100.881 46.1338 102.154 40.243 103.37 34.6896C103.976 31.9222 104.565 29.2514 105.003 27.2723C105.222 26.2828 105.403 25.4663 105.529 24.8972L105.675 24.2384L105.714 24.0656L105.724 24.0214L105.726 24.0103L105.727 24.0075L105.727 24.0068C105.727 24.0066 105.727 24.0065 104.68 23.7738L105.727 24.0065L105.732 23.9817L105.737 23.9567C106.297 20.7206 105.937 18.234 104.74 16.5267C103.518 14.7827 101.59 14.0839 99.5621 14.0839H80.1747C79.9172 14.0839 79.6415 14.0819 79.3521 14.0798C77.7169 14.0678 75.6403 14.0525 73.8971 14.3803C73.1621 14.5185 72.4204 14.7278 71.7632 15.0615V11.9248C71.7632 10.735 72.7989 9.39801 74.6519 8.27208C76.4455 7.18223 78.626 6.53446 80.1747 6.53446H106.025C111.565 6.53446 116.473 12.5173 114.668 21.4051ZM109.996 53.9309C108.852 58.7778 103.398 63.6246 97.0709 63.6246H73.9804C70.6452 63.6246 70.6712 58.2694 70.6887 54.6572C70.6899 54.4059 70.691 54.163 70.691 53.9309V50.4664L109.996 53.9309ZM57.179 70.5116L57.1791 70.5117L58.2141 72.9122L59.1626 70.4761L59.1626 70.4761L59.1627 70.4757L59.1637 70.4733L59.1679 70.4625L59.1855 70.4178C59.2013 70.3778 59.2251 70.3181 59.2563 70.2406C59.3187 70.0856 59.4109 69.8598 59.5284 69.5795C59.7636 69.0184 60.0997 68.2415 60.5026 67.3792C61.3193 65.6311 62.3714 63.6179 63.3862 62.3147C63.9121 61.6392 64.3197 61.2993 64.5692 61.1925C64.5922 61.1827 64.6098 61.1765 64.6228 61.1727C64.6406 61.1881 64.6678 61.2151 64.7033 61.2608C64.9367 61.5605 65.2474 62.2941 65.4815 63.797C65.7089 65.2574 65.8448 67.3042 65.8448 70.0871C65.8448 81.5047 68.5466 89.7476 71.2773 95.1575C72.6413 97.8599 74.0101 99.8505 75.0469 101.174C75.0879 101.226 75.1283 101.277 75.1682 101.327H40.22C40.2599 101.277 40.3004 101.226 40.3414 101.173C41.3777 99.8503 42.7461 97.8599 44.11 95.1574C46.8402 89.7476 49.5419 81.5047 49.5419 70.0871C49.5419 67.3072 49.6923 65.2669 49.9429 63.8142C50.2003 62.3216 50.5401 61.5995 50.7964 61.3022C50.8524 61.2373 50.8948 61.2044 50.9195 61.1884C50.9428 61.1734 50.9555 61.1701 50.9604 61.1689C50.9639 61.1681 51.0159 61.1549 51.1504 61.2069C51.464 61.3281 51.9275 61.6867 52.5048 62.3561C53.6291 63.6599 54.7932 65.6719 55.6967 67.4181C56.1425 68.2797 56.5143 69.0559 56.7746 69.6164C56.9046 69.8965 57.0065 70.122 57.0755 70.2768C57.11 70.3542 57.1363 70.4138 57.1538 70.4536L57.1732 70.4982L57.1779 70.5089L57.1789 70.5112L57.179 70.5116ZM64.6512 61.1668C64.651 61.1668 64.6498 61.167 64.6475 61.167C64.6502 61.1666 64.6514 61.1667 64.6512 61.1668ZM64.6023 61.1571C64.5992 61.1557 64.5978 61.1548 64.5979 61.1547C64.598 61.1546 64.5995 61.1553 64.6023 61.1571Z" fill="#BDBDBD" stroke="black" stroke-width="2.14423"/>
<path d="M58.1657 0.819796H58.1658L80.7845 0.816565L80.7847 0.816565C85.4968 0.814949 88.2013 1.39634 89.9125 3.7637C90.8047 4.998 91.497 6.80999 91.9584 9.50915C92.419 12.2033 92.6372 15.7038 92.6372 20.2531C92.6372 30.9216 87.2748 45.42 80.1438 57.3021C76.5877 63.2274 72.6284 68.4393 68.7445 72.1548C64.8144 75.9144 61.1472 77.9636 58.1657 77.9636C55.1833 77.9636 51.5157 75.9144 47.5855 72.1548C43.7014 68.4393 39.7423 63.2274 36.1864 57.3021C29.0557 45.4201 23.6942 30.9216 23.6942 20.2531C23.6942 11.8645 24.5131 7.00453 25.9899 4.25669C26.7063 2.92357 27.5637 2.1164 28.5523 1.6246C29.5611 1.12278 30.7916 0.907039 32.3158 0.907039C34.3373 0.907039 38.5487 0.888985 43.137 0.869316C43.5939 0.867357 44.0545 0.865382 44.5171 0.863408C49.6278 0.841593 54.9776 0.819796 58.1657 0.819796Z" fill="#E1E1E1" stroke="black" stroke-width="2.14423"/>
<path d="M85.7769 105.631C85.7769 106.181 85.7951 106.754 85.8117 107.277C85.8219 107.596 85.8314 107.897 85.8359 108.163C85.8488 108.928 85.825 109.514 85.7238 109.965C85.6272 110.395 85.482 110.605 85.3165 110.73C85.1371 110.865 84.7753 111.021 84.0152 111.021H32.3154C31.5644 111.021 31.1102 110.869 30.823 110.684C30.5444 110.504 30.3273 110.232 30.1597 109.807C29.7894 108.867 29.7589 107.483 29.7589 105.631V102.399C29.7589 101.006 30.4969 99.6664 31.687 98.6436C32.88 97.6184 34.4205 97.0091 35.8149 97.0091H80.784C83.4936 97.0091 85.7769 99.3569 85.7769 102.399V105.631Z" fill="#C1694F" stroke="black" stroke-width="2.14423"/>
<path d="M92.2397 110.881C92.2397 111.176 92.2455 111.427 92.2507 111.657C92.2582 111.983 92.2646 112.266 92.2523 112.568C92.2331 113.043 92.1664 113.325 92.0652 113.51C91.9316 113.754 91.4931 114.252 89.2663 114.252H27.065C25.1199 114.252 24.2885 113.788 23.8936 113.327C23.4701 112.832 23.2967 112.063 23.2967 110.881V110.074C23.2967 108.324 25.0805 106.703 27.065 106.703H89.2663C90.9987 106.703 92.2397 108.073 92.2397 110.074V110.881Z" fill="#C1694F" stroke="black" stroke-width="2.14423"/>
</g>
<defs>
<clipPath id="clip0">
<rect width="116" height="115" fill="white"/>
</clipPath>
</defs>
</svg>
