<svg width="78" height="34" viewBox="0 0 78 34" fill="none" xmlns="http://www.w3.org/2000/svg">
<rect x="0.5" y="0.5" width="77" height="33" rx="3.5" fill="#64D2D2"/>
<path d="M16.5796 22.168C15.8609 22.168 15.2309 22.042 14.6896 21.79C14.1482 21.538 13.7236 21.1787 13.4156 20.712C13.1169 20.2453 12.9629 19.69 12.9536 19.046H14.5216C14.5309 19.5687 14.7129 20.012 15.0676 20.376C15.4222 20.74 15.9216 20.922 16.5656 20.922C17.1349 20.922 17.5782 20.7867 17.8956 20.516C18.2222 20.236 18.3856 19.8813 18.3856 19.452C18.3856 19.1067 18.3062 18.8267 18.1476 18.612C17.9982 18.3973 17.7882 18.22 17.5176 18.08C17.2562 17.94 16.9529 17.814 16.6076 17.702C16.2622 17.59 15.8982 17.4687 15.5156 17.338C14.7596 17.086 14.1902 16.7593 13.8076 16.358C13.4342 15.9567 13.2476 15.4293 13.2476 14.776C13.2382 14.2253 13.3642 13.7447 13.6256 13.334C13.8962 12.9233 14.2696 12.606 14.7456 12.382C15.2309 12.1487 15.7956 12.032 16.4396 12.032C17.0742 12.032 17.6296 12.1487 18.1056 12.382C18.5909 12.6153 18.9689 12.942 19.2396 13.362C19.5102 13.7727 19.6502 14.2533 19.6596 14.804H18.0916C18.0916 14.552 18.0262 14.314 17.8956 14.09C17.7649 13.8567 17.5736 13.6653 17.3216 13.516C17.0696 13.3667 16.7616 13.292 16.3976 13.292C15.9309 13.2827 15.5436 13.3993 15.2356 13.642C14.9369 13.8847 14.7876 14.2207 14.7876 14.65C14.7876 15.0327 14.8996 15.3267 15.1236 15.532C15.3476 15.7373 15.6556 15.91 16.0476 16.05C16.4396 16.1807 16.8876 16.3347 17.3916 16.512C17.8769 16.6707 18.3109 16.862 18.6936 17.086C19.0762 17.31 19.3796 17.604 19.6036 17.968C19.8369 18.332 19.9536 18.794 19.9536 19.354C19.9536 19.8487 19.8276 20.3107 19.5756 20.74C19.3236 21.16 18.9456 21.5053 18.4416 21.776C17.9376 22.0373 17.3169 22.168 16.5796 22.168ZM21.52 25.08V15.056H22.85L23.004 16.134C23.228 15.8073 23.536 15.518 23.928 15.266C24.32 15.014 24.824 14.888 25.44 14.888C26.112 14.888 26.7047 15.0467 27.218 15.364C27.7314 15.6813 28.1327 16.1153 28.422 16.666C28.7207 17.2167 28.87 17.842 28.87 18.542C28.87 19.242 28.7207 19.8673 28.422 20.418C28.1327 20.9593 27.7314 21.3887 27.218 21.706C26.7047 22.014 26.1074 22.168 25.426 22.168C24.8847 22.168 24.404 22.0607 23.984 21.846C23.5734 21.6313 23.2467 21.328 23.004 20.936V25.08H21.52ZM25.174 20.88C25.8087 20.88 26.3314 20.6653 26.742 20.236C27.1527 19.7973 27.358 19.228 27.358 18.528C27.358 18.0707 27.2647 17.6647 27.078 17.31C26.8914 16.9553 26.6347 16.68 26.308 16.484C25.9814 16.2787 25.6034 16.176 25.174 16.176C24.5394 16.176 24.0167 16.3953 23.606 16.834C23.2047 17.2727 23.004 17.8373 23.004 18.528C23.004 19.228 23.2047 19.7973 23.606 20.236C24.0167 20.6653 24.5394 20.88 25.174 20.88ZM33.7231 22.168C33.0418 22.168 32.4351 22.0187 31.9031 21.72C31.3804 21.412 30.9698 20.9873 30.6711 20.446C30.3724 19.9047 30.2231 19.2747 30.2231 18.556C30.2231 17.828 30.3678 17.1887 30.6571 16.638C30.9558 16.0873 31.3664 15.658 31.8891 15.35C32.4211 15.042 33.0371 14.888 33.7371 14.888C34.4184 14.888 35.0111 15.042 35.5151 15.35C36.0191 15.6487 36.4111 16.05 36.6911 16.554C36.9711 17.058 37.1111 17.6133 37.1111 18.22C37.1111 18.3133 37.1064 18.416 37.0971 18.528C37.0971 18.6307 37.0924 18.7473 37.0831 18.878H31.6791C31.7258 19.55 31.9451 20.0633 32.3371 20.418C32.7384 20.7633 33.2004 20.936 33.7231 20.936C34.1431 20.936 34.4931 20.8427 34.7731 20.656C35.0624 20.46 35.2771 20.1987 35.4171 19.872H36.9011C36.7144 20.5253 36.3411 21.0713 35.7811 21.51C35.2304 21.9487 34.5444 22.168 33.7231 22.168ZM33.7231 16.106C33.2284 16.106 32.7898 16.2553 32.4071 16.554C32.0244 16.8433 31.7911 17.282 31.7071 17.87H35.6271C35.5991 17.3287 35.4078 16.8993 35.0531 16.582C34.6984 16.2647 34.2551 16.106 33.7231 16.106ZM41.0029 22.168C40.4149 22.168 39.9296 22.07 39.5469 21.874C39.1642 21.678 38.8796 21.4213 38.6929 21.104C38.5062 20.7773 38.4129 20.4227 38.4129 20.04C38.4129 19.368 38.6742 18.836 39.1969 18.444C39.7196 18.052 40.4662 17.856 41.4369 17.856H43.2569V17.73C43.2569 17.1887 43.1076 16.7827 42.8089 16.512C42.5196 16.2413 42.1416 16.106 41.6749 16.106C41.2642 16.106 40.9049 16.2087 40.5969 16.414C40.2982 16.61 40.1162 16.904 40.0509 17.296H38.5669C38.6136 16.792 38.7816 16.3627 39.0709 16.008C39.3696 15.644 39.7429 15.3687 40.1909 15.182C40.6482 14.986 41.1476 14.888 41.6889 14.888C42.6596 14.888 43.4109 15.1447 43.9429 15.658C44.4749 16.162 44.7409 16.8527 44.7409 17.73V22H43.4529L43.3269 20.81C43.1309 21.1927 42.8462 21.5147 42.4729 21.776C42.0996 22.0373 41.6096 22.168 41.0029 22.168ZM41.2969 20.964C41.6982 20.964 42.0342 20.8707 42.3049 20.684C42.5849 20.488 42.7996 20.2313 42.9489 19.914C43.1076 19.5967 43.2056 19.2467 43.2429 18.864H41.5909C41.0029 18.864 40.5829 18.9667 40.3309 19.172C40.0882 19.3773 39.9669 19.634 39.9669 19.942C39.9669 20.2593 40.0836 20.5113 40.3169 20.698C40.5596 20.8753 40.8862 20.964 41.2969 20.964ZM46.4712 22V11.92H47.9552V17.926L50.6152 15.056H52.3932L49.4392 18.206L52.8272 22H50.9512L47.9552 18.444V22H46.4712ZM56.6919 22.168C56.0105 22.168 55.4039 22.0187 54.8719 21.72C54.3492 21.412 53.9385 20.9873 53.6399 20.446C53.3412 19.9047 53.1919 19.2747 53.1919 18.556C53.1919 17.828 53.3365 17.1887 53.6259 16.638C53.9245 16.0873 54.3352 15.658 54.8579 15.35C55.3899 15.042 56.0059 14.888 56.7059 14.888C57.3872 14.888 57.9799 15.042 58.4839 15.35C58.9879 15.6487 59.3799 16.05 59.6599 16.554C59.9399 17.058 60.0799 17.6133 60.0799 18.22C60.0799 18.3133 60.0752 18.416 60.0659 18.528C60.0659 18.6307 60.0612 18.7473 60.0519 18.878H54.6479C54.6945 19.55 54.9139 20.0633 55.3059 20.418C55.7072 20.7633 56.1692 20.936 56.6919 20.936C57.1119 20.936 57.4619 20.8427 57.7419 20.656C58.0312 20.46 58.2459 20.1987 58.3859 19.872H59.8699C59.6832 20.5253 59.3099 21.0713 58.7499 21.51C58.1992 21.9487 57.5132 22.168 56.6919 22.168ZM56.6919 16.106C56.1972 16.106 55.7585 16.2553 55.3759 16.554C54.9932 16.8433 54.7599 17.282 54.6759 17.87H58.5959C58.5679 17.3287 58.3765 16.8993 58.0219 16.582C57.6672 16.2647 57.2239 16.106 56.6919 16.106ZM61.6196 22V15.056H62.9496L63.0756 16.372C63.3183 15.9147 63.6543 15.5553 64.0836 15.294C64.5223 15.0233 65.0496 14.888 65.6656 14.888V16.442H65.2596C64.849 16.442 64.4803 16.512 64.1536 16.652C63.8363 16.7827 63.5796 17.0113 63.3836 17.338C63.197 17.6553 63.1036 18.0987 63.1036 18.668V22H61.6196Z" fill="black"/>
<rect x="0.5" y="0.5" width="77" height="33" rx="3.5" stroke="black"/>
</svg>
