<svg width="427" height="432" viewBox="0 0 427 432" fill="none" xmlns="http://www.w3.org/2000/svg">
<path d="M426.83 185.075L321.221 215.789L426.83 246.49L316.85 246.18L409.539 305.434L304.112 274.124L376.366 357.103L284.014 297.331L329.99 397.317L258.201 313.937L274.159 422.829L228.753 322.583L213.415 431.578L198.077 322.583L152.67 422.829L168.629 313.937L96.8527 397.317L142.815 297.331L50.4632 357.103L122.718 274.124L17.291 305.434L109.979 246.18L0 246.49L105.608 215.789L0 185.075L109.979 185.385L17.291 126.144L122.718 157.454L50.4632 74.4752L142.815 134.247L96.8527 34.2607L168.629 117.641L152.67 8.73666L198.077 108.995L213.415 0L228.753 108.995L274.159 8.73666L258.201 117.641L329.99 34.2607L284.014 134.247L376.366 74.4752L304.112 157.454L409.539 126.144L316.85 185.385L426.83 185.075Z" fill="#FF9FC2"/>
</svg>
